<?xml version="1.0" encoding="utf-8"?>
<!-- Generator: Adobe Illustrator 25.2.0, SVG Export Plug-In . SVG Version: 6.00 Build 0)  -->
<svg version="1.1" xmlns="http://www.w3.org/2000/svg" xmlns:xlink="http://www.w3.org/1999/xlink" x="0px" y="0px"
	 viewBox="0 0 190.6 192.2" style="enable-background:new 0 0 190.6 192.2;" xml:space="preserve">
<style type="text/css">
	.st0{fill:#FFFFFF;}
	.st1{display:none;}
</style>
<g id="Layer_2">
	<path class="st0" d="M95.3,0C42.7,0,0,43,0,96.1s42.7,96.1,95.3,96.1c52.7,0,95.3-43,95.3-96.1S148,0,95.3,0z M56.4,141.1
		c8.8,11.2,22.4,17,40.3,17.1c16.2-0.1,26.9-4,35.8-12.9c10.2-10.2,10-22.6,6.7-30.2c-1.9-4.5-5.4-8.2-10-11
		c-1.1,8.5-3.7,15.2-7.8,20.4c-5.4,6.8-13,10.6-22.8,11.1c-7.4,0.4-14.6-1.4-20.1-5c-6.5-4.3-10.4-11-10.8-18.7
		c-0.8-15.2,11.2-26.1,30-27.2c6.7-0.4,12.9-0.1,18.6,0.9c-0.8-4.7-2.3-8.4-4.6-11c-3.2-3.7-8.1-5.6-14.5-5.6h-0.2
		c-5.2,0-12.3,1.5-16.8,8.3l-10.8-7.4c6-9.2,15.8-14.2,27.6-14.2h0.3c19.7,0.1,31.4,12.4,32.6,33.9c0.7,0.3,1.3,0.6,2,0.9
		c9.2,4.4,15.9,11.1,19.5,19.3c4.9,11.5,5.4,30.1-9.5,45c-11.4,11.4-25.2,16.5-44.9,16.7h-0.1c-22.1-0.2-39.1-7.6-50.5-22.1
		C36,136.5,30.8,118.6,30.6,96V96c0.2-22.5,5.4-40.5,15.6-53.4c11.4-14.5,28.4-21.9,50.5-22.1h0.1c22.1,0.2,39.3,7.6,51,22
		c5.8,7.1,10,15.7,12.8,25.7l-12.7,3.4c-2.2-8.1-5.6-15-10.1-20.6c-9.2-11.3-23-17-41-17.2C78.8,34,65.2,39.7,56.4,50.9
		C48.1,61.4,43.8,76.6,43.7,96C43.8,115.4,48.1,130.6,56.4,141.1z"/>
	<path class="st0" d="M116.5,99.3c-1.5,19.4-10.7,22.6-18.7,23c-8.2,0.5-16.7-3.2-17.2-11.1c-0.3-5.9,4.2-12.4,17.7-13.2
		c1.5-0.1,3.1-0.1,4.5-0.1C107.8,97.9,112.4,98.4,116.5,99.3z"/>
</g>
<g id="Layer_1" class="st1">
</g>
</svg>
