<svg width="1920" height="4627" fill="none" xmlns="http://www.w3.org/2000/svg"><g clip-path="url(#a)" opacity=".4"><path d="M1823.33 1787.72c-10.87 18.53-25.09 34.29-43.44 48.17-2.32 1.74-4.69 3.47-7.14 5.17 3.93-3.55 8.83-9.2 8.75-16.02-.23-19.85-42.69-34.09-59.45-39.7-82.61-27.64-285.85-54.89-355.08-63.83l.36-.1c-22.09-2.68-53.96-6.38-92.41-10.19-71.35-7.06-124.48-10.47-139.54-11.47-408.947-27.04-613.43-40.56-783.273-81.16-149.284-35.74-350.066-99.26-577.943-219.7L-43.427 758c176.799 258.17 356.809 383.03 477.963 447.69 160.656 85.74 398.379 136.83 873.754 238.98 59.19 12.73 118.15 26.74 177.32 39.56 87.02 18.86 155.76 33.75 205.78 49.82 33.66 10.78 58.76 22.07 78.98 35.5 17.84 11.84 32.75 26.05 44.43 42.25 18.68 25.91 29.14 56.74 30.27 89.16 1.06 30.73-6.54 61.07-21.74 86.76z" fill="#01A0E4"/><path d="M1772.73 1841.06c-35.16 6.68-82.94 16.06-139.5 28.1-30.6 6.52-179.9 38.55-329.79 79.4-109.38 29.78-305.124 83.16-545.443 183.52-143.977 60.13-289.747 121-468.018 234.24-156.472 99.43-303.067 216.97-437.346 350.68-13.218-211.45-26.433-422.9-39.645-634.35a2814.868 2814.868 0 0 1 248.944-107.64c46.967-17.66 155.884-57.19 594.586-153.51 309.173-67.89 441.822-89.27 605.692-97.06 43.5-2.06 79.69-2.72 104.74-2.97 59.89 7.63 109.41 14.95 145.56 20.59 7.13 1.12 34.09 4.96 69.56 11.53 146.73 27.28 159.21 36.39 178.74 46.36 9.14 4.66 20.9 13.68 20.71 25.03-.15 7.42-5.43 13.11-8.79 16.08z" fill="#45CAF5"/></g><g opacity=".3" clip-path="url(#b)" fill="#45CAF5"><path d="M1752.72 2634.69a187.15 187.15 0 0 0-5.24 91.54c.77 4.07 1.68 8.09 2.74 12.05 3.51 18.26 4.29 36.94 2.32 55.43-1.9 11.46-4.19 22.78-6.88 33.96a485.768 485.768 0 0 1-11.26 39.47c-5.19 3.29-10.48 6.52-15.79 9.62a178.032 178.032 0 0 1-31.59 13.22c-2.58.79-25.94 7.78-48.71 7.78-72.67 0-136.53-51.57-151.77-122.65v-.12c-.7-3.18-1.27-6.36-1.69-9.44l-.1-.76-.14-.75a516.87 516.87 0 0 0-13.52-53.98 484.863 484.863 0 0 0 100.12-212.19c.36-1.69.7-3.38 1-5.19a114.985 114.985 0 0 1 29.04-54.86 114.765 114.765 0 0 1 53.29-31.73c20.33-5.48 41.78-5.25 61.99.66a114.781 114.781 0 0 1 52.6 32.86l.19.2c1 1.21 2.04 2.41 3.09 3.57h.09a184.955 184.955 0 0 0 62.51 45.71 184.64 184.64 0 0 0 75.71 16.11c3.16 0 6.3-.08 9.43-.24a185.553 185.553 0 0 0-103.97 38.65 186.046 186.046 0 0 0-63.46 91.08zM1693.6 2957.73c-1.24 2.12-2.47 4.24-3.74 6.33-.78 1.29-1.55 2.58-2.35 3.85-1.69 2.93-3.6 5.82-5.44 8.7-1.03 1.61-2.06 3.2-3.13 4.79l-1.16 1.77c-.71 1.07-1.42 2.14-2.17 3.2-.74 1.07-1.69 2.53-2.57 3.78-.47.69-.94 1.39-1.43 2.06-.98 1.43-1.98 2.85-2.99 4.25l-1.12 1.54c-1.22 1.71-2.45 3.4-3.7 5.08l-.76 1.03c-1.34 1.81-2.69 3.59-4.04 5.37l-.52.66c-1.09 1.42-2.18 2.84-3.38 4.25-.68.88-1.36 1.69-2.07 2.6-1.35 1.71-2.72 3.4-4.1 5.08-1.39 1.68-2.88 3.48-4.47 5.38l-.72.87c-1.69 1.91-3.25 3.81-4.9 5.69-1.66 1.87-3.38 3.8-5.07 5.7-3.54 3.9-7.14 7.76-10.79 11.58-1.79 1.87-3.61 3.73-5.46 5.58-1.77 1.8-3.58 3.57-5.39 5.35-1.81 1.78-3.24 3.15-4.88 4.69-.92.88-1.85 1.69-2.78 2.61-1.2 1.13-2.4 2.25-3.6 3.38-.18.19-.38.38-.57.53-1.69 1.54-3.38 3.06-5.07 4.57l-1.42 1.23c-1.25 1.12-2.5 2.22-3.77 3.29-.71.64-1.44 1.25-2.16 1.86a416.78 416.78 0 0 1-4.63 3.91l-.51.42c-1.86 1.56-3.74 3.09-5.63 4.59-.14.13-.28.25-.44.35-1.38 1.14-2.79 2.24-4.19 3.39l-2.54 2c-1.79 1.37-3.58 2.74-5.39 4.09-1.81 1.36-3.88 2.91-5.86 4.34l-.58.44c-1.48 1.08-2.99 2.16-4.49 3.21-6.76 4.81-13.65 9.44-20.66 13.9l-.96.61c-2.03 1.29-4.07 2.55-6.13 3.81l-.17.1c-1.95 1.18-3.89 2.37-5.85 3.52l-4.77 2.79c-2.03 1.17-4.07 2.32-6.12 3.39l-1.16.64-3.69 2.02-2.28 1.23c-1.15.63-2.31 1.24-3.48 1.85-3.03 1.59-6.07 3.14-9.13 4.67l-3.77 1.86c-3.77 1.84-7.59 3.64-11.4 5.38l-1.95.88-5.39 2.41c-8.05 3.51-16.2 6.8-24.47 9.86l-3.38 1.26-2.18.78-3.64 1.28c-1.27.46-2.53.88-3.8 1.32l-3.75 1.25c-2.64.89-5.31 1.7-7.98 2.58a484.889 484.889 0 0 1-34.5 9.36l-3.14.71c-2.42.56-4.83 1.08-7.27 1.59l-3.68.74-4.25.83-4.24.8c-1.42.27-2.85.52-4.27.76-8.56 1.49-17.18 2.74-25.86 3.76l-4.36.49c-3.28.37-6.57.7-9.87.98l-3.27.27-4.39.34-5.07.34-3.28.19c-1.69.1-3.26.18-4.9.25l-3.38.14c-1.86 0-3.72.13-5.58.18-1.47 0-2.96 0-4.44.1h-8.96c-45.01.04-89.81-6.18-133.12-18.48a507.015 507.015 0 0 1-34.87-11.38c9.29-7.25 18.39-14.72 27.32-22.39 2.42-2.06 4.82-4.15 7.2-6.26l2.84-2.49c2.25-2.01 4.5-4.04 6.76-6.09 2.62-2.39 5.22-4.78 7.8-7.2.12-.09.23-.19.33-.3 2.65-2.46 5.29-4.96 7.91-7.48 2.62-2.53 4.9-4.73 7.33-7.13 3.1-3.04 6.16-6.09 9.18-9.17 2.23-2.27 4.43-4.54 6.62-6.78.34-.33.68-.69 1-1.04 2.03-2.11 4.03-4.24 6.02-6.37.57-.59 1.13-1.18 1.69-1.79 2.3-2.46 4.56-4.95 6.76-7.43 2.5-2.75 4.95-5.51 7.38-8.28 2.44-2.78 4.58-5.23 6.85-7.87l1.35-1.59c4.51-5.27 8.94-10.6 13.29-16 2.33-2.88 4.64-5.79 6.91-8.7 2.26-2.91 4.56-5.84 6.76-8.78 2.2-2.95 4.34-5.73 6.47-8.62.09-.08.15-.17.21-.27 1.69-2.15 3.19-4.33 4.78-6.52 1.59-2.18 2.91-4.01 4.33-6.04a793.33 793.33 0 0 0 17.49-25.66c1.42-2.17 2.82-4.35 4.21-6.53 1.38-2.19 2.77-4.38 4.16-6.57a483.527 483.527 0 0 0 180.74 36.12c3.53.08 7.06.12 10.58.12a540.773 540.773 0 0 0 214.15-45.7l.37.06z"/><path d="M1104.98 3170.55a761.217 761.217 0 0 1-29.12 21.72A781.015 781.015 0 0 1 794.906 3318a785.755 785.755 0 0 0 68.35-321.61c0-7.05-.09-14.09-.27-21.12 50.823 79.69 123.644 142.91 209.634 181.98 10.59 4.81 21.38 9.24 32.36 13.3zM1713.49 2912.84c-.08.07-.16.12-.25.16l-4.82 2.6c-1.69.93-3.38 1.83-5.07 2.73-3.45 1.82-6.92 3.57-10.43 5.26l-4.02 1.97-1.96.93-4.58 2.13c-3.55 1.65-7.12 3.24-10.7 4.77-1.79.78-3.6 1.54-5.41 2.29l-5.46 2.28-5.47 2.17c-1.83.71-3.66 1.42-5.5 2.1l-3.68 1.35c-.93.36-1.86.68-2.77 1l-3.2 1.14c-2 .71-4.02 1.4-6.03 2.08-1.08.37-2.18.74-3.28 1.08-1.1.34-2.6.86-3.92 1.27l-1.17.37-4.04 1.26h-.25l-4.63 1.42c-.37.12-.73.22-1.1.3a182.23 182.23 0 0 1-32.45 5.6 455.895 455.895 0 0 1-111.05 13.75h-7.8c-1.41 0-2.83 0-4.23-.15l-3.16-.14-2.87-.13-2.88-.16-3.26-.2-3.24-.22c-2.4-.17-4.79-.35-7.19-.56-2.4-.2-4.43-.39-6.62-.61l-4.19-.44-5.38-.61-2.5-.3a269.7 269.7 0 0 1-6.76-.9c-1.32-.17-2.64-.35-3.94-.56-1.3-.2-3.11-.45-4.65-.71l-2.48-.39-.68-.12-3.18-.52-6.43-1.15a352.5 352.5 0 0 1-6.77-1.3l-5.86-1.21-5.07-1.13-3.23-.73c-2.06-.47-4.12-.96-6.17-1.47-2.04-.51-3.78-.93-5.68-1.42-2.57-.66-5.07-1.34-7.65-2.05l-2.27-.78-3.18-.9-6.76-1.99c-3.17-.96-6.33-1.96-9.48-2.98l-4.78-1.61c-1.88-.63-3.75-1.27-5.61-1.93l-2.35-.83-3.8-1.37-3.39-1.27-2.55-.97-2.33-.89c-2.91-1.13-5.8-2.26-8.67-3.39-2.01-.81-4-1.64-5.98-2.49l-6.09-2.65c-1.99-.88-3.99-1.78-5.96-2.7l-6.05-2.81c-5.95-2.82-11.84-5.77-17.65-8.83-3.79-2-7.54-4.03-11.26-6.13a402.18 402.18 0 0 1-5.42-3.08l-.61-.35-5.22-3.08c-1.86-1.12-3.72-2.24-5.56-3.39l-5.51-3.39-4.4-2.81c-2.16-1.42-4.32-2.84-6.47-4.28-1.79-1.2-3.58-2.42-5.36-3.65-1.48-1.01-2.93-2.02-4.36-3.05l-1.98-1.41c-1.21-.86-2.43-1.69-3.63-2.64-.34-.22-.66-.45-.98-.71l-3.11-2.3c-1.05-.76-2.11-1.56-3.16-2.37-1.05-.81-1.69-1.3-2.6-1.98-3.63-2.8-7.23-5.65-10.81-8.55-1.01-.81-2.01-1.69-3-2.47-1.69-1.4-3.38-2.83-5.07-4.26-1.69-1.44-3.38-2.9-5.07-4.37-.55-.46-1.07-.93-1.61-1.42-1.44-1.26-2.86-2.52-4.29-3.83l-2.66-2.42c-3.19-2.91-6.34-5.88-9.46-8.9-.81-.76-1.69-1.54-2.4-2.34-3.21-3.13-6.37-6.33-9.48-9.56l-1.61-1.68c-1.79-1.86-3.57-3.74-5.29-5.62-3.5-3.75-6.93-7.57-10.29-11.44-1.51-1.69-2.99-3.38-4.45-5.2-.66-.77-1.32-1.54-1.96-2.31l-3.23-3.91c-.72-.89-1.43-1.7-2.14-2.66-1.03-1.25-2.03-2.51-3.01-3.76a.443.443 0 0 1-.12-.15l-1.99-2.54c-1.34-1.69-2.66-3.39-3.98-5.08-1.47-1.95-2.93-3.9-4.36-5.86l-2.08-2.86-.77-1.06c-.12-.15-.23-.3-.32-.46-.6-.8-1.15-1.59-1.69-2.39a.418.418 0 0 1-.11-.15c-.65-.93-1.31-1.86-1.96-2.81-2.09-2.96-4.13-5.93-6.1-8.94-1.2-1.77-2.36-3.57-3.53-5.38s-2.62-4.09-3.92-6.16l-2.28-3.69-1.56-2.56c-2.52-4.18-4.98-8.4-7.38-12.66-.53-.91-1.03-1.83-1.54-2.76-.69-1.21-1.37-2.43-2.01-3.65-.87-1.58-1.69-3.15-2.54-4.74-.16-.28-.31-.57-.44-.86-.69-1.26-1.33-2.49-1.98-3.75-.81-1.55-1.6-3.11-2.38-4.68a.625.625 0 0 1-.1-.22c-.78-1.53-1.54-3.07-2.28-4.61-.75-1.54-1.69-3.38-2.4-4.96l-.73-1.54-.2-.42c-.69-1.47-1.39-2.95-2.05-4.44v-.15c-.45-1-.91-2-1.35-2.99-.95-2.09-1.87-4.19-2.79-6.3-1.38-3.39-2.81-6.8-4.27-10.24-48.324-111.86-136.652-201.6-247.646-251.58A483.41 483.41 0 0 1 977.409 2376c9.476 0 18.884.27 28.221.81 3.32.19 6.63.42 9.94.68l4.74.39c1.45.12 2.89.25 4.34.41h.71l.73.08c.96 0 1.94.19 2.9.3l2.71.29 3.99.46h.08l1.84.22 5.24.68c1.34.17 2.66.35 3.99.55l1.23.17 6.21.95 3.07.51h.65l4.42.76 4.21.76 1.25.24 1.24.24.5.1.48.08c1.3.24 2.58.49 3.87.76l2.94.61.66.14 3.48.74c2.38.51 4.77 1.05 7.15 1.61l4.31 1.04 1.81.44 1.43.35 1.42.36h.43l4 1.05.68.16.74.21 3.91 1.06.37.11 4.27 1.2 1.83.52.62.19 3.03.9c2.82.84 5.65 1.69 8.45 2.62l2.08.66.83.27 3.09 1.03c.41.12.81.26 1.2.41 1.2.39 2.4.79 3.58 1.22l3.82 1.33c1.14.39 2.25.8 3.38 1.22l4.48 1.7c1.95.71 3.87 1.45 5.8 2.21.83.31 1.69.65 2.48.99l1.69.69 1.81.73 5.85 2.42 4.18 1.78 4.54 1.99c1.19.53 2.39 1.05 3.55 1.59l3.53 1.7 1.93.89 1.08.53c1.88.88 3.77 1.78 5.65 2.69 1.87.91 3.53 1.69 5.29 2.62l3.63 1.86 1.69.83c1.49.77 2.96 1.53 4.41 2.32 1.81.95 3.62 1.93 5.43 2.93l2.87 1.59c1.81 1 3.62 2.02 5.43 3.07l3.65 2.11 2.75 1.69 3.81 2.29 3.83 2.35c1.34.83 2.67 1.7 3.99 2.51 1.32.81 2.66 1.69 3.97 2.54 2.64 1.69 5.24 3.38 7.85 5.18 1.3.88 2.6 1.69 3.88 2.65 2.57 1.76 5.14 3.56 7.69 5.4 5.09 3.66 10.1 7.41 15.05 11.24l3.68 2.9 3.67 2.93 3.63 2.97c1.21.99 2.41 1.99 3.6 3 1.44 1.2 2.86 2.42 4.26 3.62l1.1.95 1.3 1.13c1.34 1.16 2.65 2.32 3.97 3.51l3.21 2.89.27.26.48.44 1.69 1.61.59.54.52.49c2.29 2.11 4.57 4.26 6.76 6.43 3.38 3.25 6.71 6.55 9.99 9.9 1.1 1.12 2.18 2.24 3.27 3.39 1.83 1.89 3.65 3.81 5.44 5.74.94 1.01 1.89 2.03 2.82 3.06.93 1.03 1.54 1.69 2.28 2.5 1.59 1.7 3.16 3.52 4.72 5.3 1.23 1.39 2.45 2.81 3.65 4.22l3.04 3.57 2.99 3.6 1.3 1.58c1.27 1.56 2.54 3.11 3.79 4.69.25.32.51.62.74.94l1.29 1.7c.44.54.86 1.1 1.3 1.69l.39.51c.96 1.23 1.92 2.47 2.87 3.72.95 1.25 1.89 2.49 2.82 3.74l2.79 3.78 2.76 3.81c.91 1.26 1.82 2.55 2.72 3.84.89 1.28 1.81 2.55 2.69 3.86l2.65 3.87c.86 1.31 1.69 2.61 2.6 3.93l2.57 3.93c2.57 3.95 5.07 7.94 7.51 11.98.82 1.36 1.69 2.69 2.43 4.05.74 1.35 1.69 2.7 2.38 4.08.7 1.37 1.57 2.72 2.35 4.09.51.9 1.03 1.8 1.52 2.71.49.91.97 1.69 1.42 2.56.46.86 1.1 1.99 1.69 2.99l.32.58c.65 1.18 1.29 2.38 1.91 3.59.63 1.2 1.37 2.59 2.03 3.89.66 1.3 1.19 2.28 1.78 3.38.05.1.09.2.13.31l.34.63v.15c1.06 2.11 2.13 4.25 3.16 6.38.36.71.69 1.42 1.03 2.13l2.03 4.28c.68 1.44 1.34 2.88 1.99 4.32 1.04 2.25 2.05 4.5 3.03 6.77.34.75.66 1.49.98 2.25.32.76.69 1.58 1.01 2.37l.71 1.7c.76 1.77 1.49 3.55 2.22 5.34.32.8.64 1.58.94 2.37.31.8.77 1.9 1.14 2.85v.12c.64 1.59 1.25 3.2 1.86 4.8.44 1.13.86 2.26 1.26 3.39 1.13 2.88 2.18 5.76 3.15 8.66.44 1.24.86 2.49 1.28 3.73.42 1.23.97 2.81 1.42 4.21.07.17.12.35.17.53.36 1.01.7 2.05 1.01 3.1.14.35.26.72.36 1.1.1.37.13.37.19.55l1.31 4.2c.39 1.27.78 2.52 1.15 3.79.38 1.27.87 2.9 1.29 4.35.12.36.22.73.32 1.09l.35 1.27c.33 1.11.65 2.25.95 3.38.44 1.54.85 3.1 1.27 4.66.42 1.55.88 3.38 1.3 5.08.37 1.4.73 2.82 1.06 4.24l.11.38c.1.44.22.89.32 1.35.1.46.15.61.22.93v.17c.2.9.42 1.81.62 2.73.2.91.32 1.33.46 1.99.27 1.14.52 2.29.78 3.39.25 1.1.5 2.27.74 3.38.63 2.97 1.23 5.94 1.81 8.91.56 3.94 1.27 7.83 2.11 11.69a186.032 186.032 0 0 0 64.89 105.46 185.517 185.517 0 0 0 116.63 41.26h8.02c10.26-.4 20.48-1.67 30.54-3.79 5.77-1.22 11.48-2.73 17.1-4.53l.58-.17.52-.16.47-.13.39-.12c6.63-2.05 12.58-4.16 17.95-6.42z"/></g><g opacity=".4" clip-path="url(#c)"><path d="M1.505 3042.67c32.87 27.45 76.775 62.09 130.2 99.06 131.178 90.79 244.688 143.49 303.2 168.5 207.579 88.73 388.243 111.29 476.755 121.59 77.778 9.06 254.89 24.71 453.02 67.79 42.51 9.24 128.94 26.56 170.18 102.24 9.14 16.82 27.45 55.31 23.5 104.52-5.05 63-43 102.24-59.23 119.04-43.04 44.54-91.9 55.49-112.94 58.75 18.39-16.92 37.41-39.04 32.93-57.2-6.66-26.94-62.23-33.91-146.5-35.5-151.78-2.83-272.87 7.65-301.384 10.5-111.694 11.06-194.912 8.31-269.379 7.67-188.095-1.63-331.243-31.64-440.872-55.24-160.251-34.53-317.548-84.35-470.165-148.93 70.235-187.6 140.464-375.2 210.685-562.79z" fill="#01A0E4"/><path d="M2131.02 3849.3a2367.892 2367.892 0 0 0-311.96-7.45c-24.64 1-44.5 2.13-63.73 3.55-144.9 10.69-249.23 24.38-296.44 30.53-156.5 20.38-279.03 20.23-430.29 20.06-125.791-.15-310.76-7.17-315.368-47.48-1.555-13.54 17.653-27.76 35.753-38.31-18.376.22-36.639 3.28-54.274 9.08-14.663 4.8-54.009 18.63-82.07 58.57-33.86 48.22-30.925 105.97-29.115 141.56 1.636 32.31 8.208 61.3 13.852 77.13 32.566 91.25 168.652 121.62 277.106 142.03 195.226 36.64 250.576 31.2 443.716 60.29 119.27 18.12 237.56 43.58 354.31 76.25 114.85 32.11 161.75 52.68 202.3 75.55 104.49 58.9 175.41 135.4 217.78 188.97l38.43-790.33z" fill="#45CAF5"/></g><defs><clipPath id="a"><path fill="#fff" transform="translate(-399.836 704)" d="M0 0h2322.02v1973.71H0z"/></clipPath><clipPath id="b"><path fill="#fff" transform="translate(781.164 2376)" d="M0 0h1139v942H0z"/></clipPath><clipPath id="c"><path fill="#fff" transform="rotate(.273 -643992.728 -41802.533)" d="M0 0h2341.33v1545.64H0z"/></clipPath></defs></svg>