<svg width="1920" height="4627" viewBox="0 0 1920 4627" fill="none" xmlns="http://www.w3.org/2000/svg">
<g opacity="0.4">
<g clip-path="url(#clip0_0_1)">
<path d="M1823.33 1787.72C1812.46 1806.25 1798.24 1822.01 1779.89 1835.89C1777.57 1837.63 1775.2 1839.36 1772.75 1841.06C1776.68 1837.51 1781.58 1831.86 1781.5 1825.04C1781.27 1805.19 1738.81 1790.95 1722.05 1785.34C1639.44 1757.7 1436.2 1730.45 1366.97 1721.51L1367.33 1721.41C1345.24 1718.73 1313.37 1715.03 1274.92 1711.22C1203.57 1704.16 1150.44 1700.75 1135.38 1699.75C726.433 1672.71 521.95 1659.19 352.107 1618.59C202.823 1582.85 2.04143 1519.33 -225.836 1398.89L-43.427 758C133.372 1016.17 313.382 1141.03 434.536 1205.69C595.192 1291.43 832.915 1342.52 1308.29 1444.67C1367.48 1457.4 1426.44 1471.41 1485.61 1484.23C1572.63 1503.09 1641.37 1517.98 1691.39 1534.05C1725.05 1544.83 1750.15 1556.12 1770.37 1569.55C1788.21 1581.39 1803.12 1595.6 1814.8 1611.8C1833.48 1637.71 1843.94 1668.54 1845.07 1700.96C1846.13 1731.69 1838.53 1762.03 1823.33 1787.72Z" fill="#01A0E4"/>
<path d="M1772.73 1841.06C1737.57 1847.74 1689.79 1857.12 1633.23 1869.16C1602.63 1875.68 1453.33 1907.71 1303.44 1948.56C1194.06 1978.34 998.316 2031.72 757.997 2132.08C614.02 2192.21 468.25 2253.08 289.979 2366.32C133.507 2465.75 -13.0881 2583.29 -147.367 2717C-160.585 2505.55 -173.8 2294.1 -187.012 2082.65C-128.513 2053.93 -43.2483 2014.58 61.9321 1975.01C108.899 1957.35 217.816 1917.82 656.518 1821.5C965.691 1753.61 1098.34 1732.23 1262.21 1724.44C1305.71 1722.38 1341.9 1721.72 1366.95 1721.47C1426.84 1729.1 1476.36 1736.42 1512.51 1742.06C1519.64 1743.18 1546.6 1747.02 1582.07 1753.59C1728.8 1780.87 1741.28 1789.98 1760.81 1799.95C1769.95 1804.61 1781.71 1813.63 1781.52 1824.98C1781.37 1832.4 1776.09 1838.09 1772.73 1841.06Z" fill="#45CAF5"/>
</g>
</g>
<g opacity="0.3" clip-path="url(#clip1_0_1)">
<path d="M1752.72 2634.69C1743.41 2664.29 1741.61 2695.75 1747.48 2726.23C1748.25 2730.3 1749.16 2734.32 1750.22 2738.28C1753.73 2756.54 1754.51 2775.22 1752.54 2793.71C1750.64 2805.17 1748.35 2816.49 1745.66 2827.67C1742.45 2841.04 1738.69 2854.2 1734.4 2867.14C1729.21 2870.43 1723.92 2873.66 1718.61 2876.76C1708.53 2882.17 1697.95 2886.6 1687.02 2889.98C1684.44 2890.77 1661.08 2897.76 1638.31 2897.76C1565.64 2897.76 1501.78 2846.19 1486.54 2775.11V2774.99C1485.84 2771.81 1485.27 2768.63 1484.85 2765.55L1484.75 2764.79L1484.61 2764.04C1481.08 2745.82 1476.56 2727.8 1471.09 2710.06C1521.32 2648.62 1555.7 2575.75 1571.21 2497.87C1571.57 2496.18 1571.91 2494.49 1572.21 2492.68C1576.68 2472.07 1586.73 2453.09 1601.25 2437.82C1615.77 2422.55 1634.21 2411.57 1654.54 2406.09C1674.87 2400.61 1696.32 2400.84 1716.53 2406.75C1736.74 2412.67 1754.94 2424.03 1769.13 2439.61L1769.32 2439.81C1770.32 2441.02 1771.36 2442.22 1772.41 2443.38H1772.5C1789.88 2462.86 1811.19 2478.44 1835.01 2489.09C1858.83 2499.75 1884.63 2505.24 1910.72 2505.2C1913.88 2505.2 1917.02 2505.12 1920.15 2504.96C1882.37 2506.94 1846.1 2520.42 1816.18 2543.61C1786.26 2566.79 1764.12 2598.57 1752.72 2634.69Z" fill="#45CAF5"/>
<path d="M1693.6 2957.73C1692.36 2959.85 1691.13 2961.97 1689.86 2964.06C1689.08 2965.35 1688.31 2966.64 1687.51 2967.91C1685.82 2970.84 1683.91 2973.73 1682.07 2976.61C1681.04 2978.22 1680.01 2979.81 1678.94 2981.4L1677.78 2983.17C1677.07 2984.24 1676.36 2985.31 1675.61 2986.37C1674.87 2987.44 1673.92 2988.9 1673.04 2990.15C1672.57 2990.84 1672.1 2991.54 1671.61 2992.21C1670.63 2993.64 1669.63 2995.06 1668.62 2996.46L1667.5 2998C1666.28 2999.71 1665.05 3001.4 1663.8 3003.08L1663.04 3004.11C1661.7 3005.92 1660.35 3007.7 1659 3009.48L1658.48 3010.14C1657.39 3011.56 1656.3 3012.98 1655.1 3014.39C1654.42 3015.27 1653.74 3016.08 1653.03 3016.99C1651.68 3018.7 1650.31 3020.39 1648.93 3022.07C1647.54 3023.75 1646.05 3025.55 1644.46 3027.45L1643.74 3028.32C1642.05 3030.23 1640.49 3032.13 1638.84 3034.01C1637.18 3035.88 1635.46 3037.81 1633.77 3039.71C1630.23 3043.61 1626.63 3047.47 1622.98 3051.29C1621.19 3053.16 1619.37 3055.02 1617.52 3056.87C1615.75 3058.67 1613.94 3060.44 1612.13 3062.22C1610.32 3064 1608.89 3065.37 1607.25 3066.91C1606.33 3067.79 1605.4 3068.6 1604.47 3069.52C1603.27 3070.65 1602.07 3071.77 1600.87 3072.9C1600.69 3073.09 1600.49 3073.28 1600.3 3073.43C1598.61 3074.97 1596.92 3076.49 1595.23 3078L1593.81 3079.23C1592.56 3080.35 1591.31 3081.45 1590.04 3082.52C1589.33 3083.16 1588.6 3083.77 1587.88 3084.38C1586.34 3085.7 1584.8 3087 1583.25 3088.29L1582.74 3088.71C1580.88 3090.27 1579 3091.8 1577.11 3093.3C1576.97 3093.43 1576.83 3093.55 1576.67 3093.65C1575.29 3094.79 1573.88 3095.89 1572.48 3097.04L1569.94 3099.04C1568.15 3100.41 1566.36 3101.78 1564.55 3103.13C1562.74 3104.49 1560.67 3106.04 1558.69 3107.47L1558.11 3107.91C1556.63 3108.99 1555.12 3110.07 1553.62 3111.12C1546.86 3115.93 1539.97 3120.56 1532.96 3125.02L1532 3125.63C1529.97 3126.92 1527.93 3128.18 1525.87 3129.44L1525.7 3129.54C1523.75 3130.72 1521.81 3131.91 1519.85 3133.06L1515.08 3135.85C1513.05 3137.02 1511.01 3138.17 1508.96 3139.24L1507.8 3139.88L1504.11 3141.9L1501.83 3143.13C1500.68 3143.76 1499.52 3144.37 1498.35 3144.98C1495.32 3146.57 1492.28 3148.12 1489.22 3149.65L1485.45 3151.51C1481.68 3153.35 1477.86 3155.15 1474.05 3156.89L1472.1 3157.77L1466.71 3160.18C1458.66 3163.69 1450.51 3166.98 1442.24 3170.04L1438.86 3171.3L1436.68 3172.08L1433.04 3173.36C1431.77 3173.82 1430.51 3174.24 1429.24 3174.68L1425.49 3175.93C1422.85 3176.82 1420.18 3177.63 1417.51 3178.51C1415.21 3179.22 1412.9 3179.93 1410.58 3180.61C1401.5 3183.29 1392.31 3185.71 1383.01 3187.87L1379.87 3188.58C1377.45 3189.14 1375.04 3189.66 1372.6 3190.17L1368.92 3190.91L1364.67 3191.74L1360.43 3192.54C1359.01 3192.81 1357.58 3193.06 1356.16 3193.3C1347.6 3194.79 1338.98 3196.04 1330.3 3197.06L1325.94 3197.55C1322.66 3197.92 1319.37 3198.25 1316.07 3198.53L1312.8 3198.8L1308.41 3199.14L1303.34 3199.48L1300.06 3199.67C1298.37 3199.77 1296.8 3199.85 1295.16 3199.92L1291.78 3200.06C1289.92 3200.06 1288.06 3200.19 1286.2 3200.24C1284.73 3200.24 1283.24 3200.24 1281.76 3200.34C1278.78 3200.34 1275.79 3200.34 1272.8 3200.34C1227.79 3200.38 1182.99 3194.16 1139.68 3181.86C1127.87 3178.47 1116.25 3174.68 1104.81 3170.48C1114.1 3163.23 1123.2 3155.76 1132.13 3148.09C1134.55 3146.03 1136.95 3143.94 1139.33 3141.83L1142.17 3139.34C1144.42 3137.33 1146.67 3135.3 1148.93 3133.25C1151.55 3130.86 1154.15 3128.47 1156.73 3126.05C1156.85 3125.96 1156.96 3125.86 1157.06 3125.75C1159.71 3123.29 1162.35 3120.79 1164.97 3118.27C1167.59 3115.74 1169.87 3113.54 1172.3 3111.14C1175.4 3108.1 1178.46 3105.05 1181.48 3101.97C1183.71 3099.7 1185.91 3097.43 1188.1 3095.19C1188.44 3094.86 1188.78 3094.5 1189.1 3094.15C1191.13 3092.04 1193.13 3089.91 1195.12 3087.78C1195.69 3087.19 1196.25 3086.6 1196.81 3085.99C1199.11 3083.53 1201.37 3081.04 1203.57 3078.56C1206.07 3075.81 1208.52 3073.05 1210.95 3070.28C1213.39 3067.5 1215.53 3065.05 1217.8 3062.41L1219.15 3060.82C1223.66 3055.55 1228.09 3050.22 1232.44 3044.82C1234.77 3041.94 1237.08 3039.03 1239.35 3036.12C1241.61 3033.21 1243.91 3030.28 1246.11 3027.34C1248.31 3024.39 1250.45 3021.61 1252.58 3018.72C1252.67 3018.64 1252.73 3018.55 1252.79 3018.45C1254.48 3016.3 1255.98 3014.12 1257.57 3011.93C1259.16 3009.75 1260.48 3007.92 1261.9 3005.89C1267.89 2997.46 1273.72 2988.91 1279.39 2980.23C1280.81 2978.06 1282.21 2975.88 1283.6 2973.7C1284.98 2971.51 1286.37 2969.32 1287.76 2967.13C1345.14 2990.65 1406.5 3002.91 1468.5 3003.25C1472.03 3003.33 1475.56 3003.37 1479.08 3003.37C1552.83 3002.9 1625.7 2987.35 1693.23 2957.67L1693.6 2957.73Z" fill="#45CAF5"/>
<path d="M1104.98 3170.55C1095.45 3178.02 1085.74 3185.26 1075.86 3192.27C991.457 3252.41 895.954 3295.15 794.906 3318C840.111 3216.83 863.405 3107.23 863.256 2996.39C863.256 2989.34 863.166 2982.3 862.986 2975.27C913.809 3054.96 986.63 3118.18 1072.62 3157.25C1083.21 3162.06 1094 3166.49 1104.98 3170.55Z" fill="#45CAF5"/>
<path d="M1713.49 2912.84C1713.41 2912.91 1713.33 2912.96 1713.24 2913L1708.42 2915.6C1706.73 2916.53 1705.04 2917.43 1703.35 2918.33C1699.9 2920.15 1696.43 2921.9 1692.92 2923.59L1688.9 2925.56L1686.94 2926.49L1682.36 2928.62C1678.81 2930.27 1675.24 2931.86 1671.66 2933.39C1669.87 2934.17 1668.06 2934.93 1666.25 2935.68L1660.79 2937.96L1655.32 2940.13C1653.49 2940.84 1651.66 2941.55 1649.82 2942.23L1646.14 2943.58C1645.21 2943.94 1644.28 2944.26 1643.37 2944.58L1640.17 2945.72C1638.17 2946.43 1636.15 2947.12 1634.14 2947.8C1633.06 2948.17 1631.96 2948.54 1630.86 2948.88C1629.76 2949.22 1628.26 2949.74 1626.94 2950.15L1625.77 2950.52L1621.73 2951.78H1621.48L1616.85 2953.2C1616.48 2953.32 1616.12 2953.42 1615.75 2953.5C1605.12 2956.34 1594.26 2958.22 1583.3 2959.1C1546.99 2968.23 1509.69 2972.84 1472.25 2972.85H1468.64C1467.94 2972.85 1467.23 2972.85 1466.54 2972.85H1464.45C1463.04 2972.85 1461.62 2972.85 1460.22 2972.7L1457.06 2972.56L1454.19 2972.43L1451.31 2972.27L1448.05 2972.07L1444.81 2971.85C1442.41 2971.68 1440.02 2971.5 1437.62 2971.29C1435.22 2971.09 1433.19 2970.9 1431 2970.68L1426.81 2970.24L1421.43 2969.63L1418.93 2969.33C1416.66 2969.06 1414.38 2968.75 1412.17 2968.43C1410.85 2968.26 1409.53 2968.08 1408.23 2967.87C1406.93 2967.67 1405.12 2967.42 1403.58 2967.16L1401.1 2966.77L1400.42 2966.65L1397.24 2966.13L1390.81 2964.98C1388.54 2964.57 1386.28 2964.13 1384.04 2963.68L1378.18 2962.47L1373.11 2961.34L1369.88 2960.61C1367.82 2960.14 1365.76 2959.65 1363.71 2959.14C1361.67 2958.63 1359.93 2958.21 1358.03 2957.72C1355.46 2957.06 1352.96 2956.38 1350.38 2955.67L1348.11 2954.89L1344.93 2953.99L1338.17 2952C1335 2951.04 1331.84 2950.04 1328.69 2949.02L1323.91 2947.41C1322.03 2946.78 1320.16 2946.14 1318.3 2945.48L1315.95 2944.65L1312.15 2943.28L1308.76 2942.01L1306.21 2941.04L1303.88 2940.15C1300.97 2939.02 1298.08 2937.89 1295.21 2936.76C1293.2 2935.95 1291.21 2935.12 1289.23 2934.27L1283.14 2931.62C1281.15 2930.74 1279.15 2929.84 1277.18 2928.92L1271.13 2926.11C1265.18 2923.29 1259.29 2920.34 1253.48 2917.28C1249.69 2915.28 1245.94 2913.25 1242.22 2911.15C1240.4 2910.14 1238.59 2909.1 1236.8 2908.07L1236.19 2907.72L1230.97 2904.64C1229.11 2903.52 1227.25 2902.4 1225.41 2901.25L1219.9 2897.86L1215.5 2895.05C1213.34 2893.63 1211.18 2892.21 1209.03 2890.77C1207.24 2889.57 1205.45 2888.35 1203.67 2887.12C1202.19 2886.11 1200.74 2885.1 1199.31 2884.07L1197.33 2882.66C1196.12 2881.8 1194.9 2880.97 1193.7 2880.02C1193.36 2879.8 1193.04 2879.57 1192.72 2879.31L1189.61 2877.01C1188.56 2876.25 1187.5 2875.45 1186.45 2874.64C1185.4 2873.83 1184.76 2873.34 1183.85 2872.66C1180.22 2869.86 1176.62 2867.01 1173.04 2864.11C1172.03 2863.3 1171.03 2862.42 1170.04 2861.64C1168.35 2860.24 1166.66 2858.81 1164.97 2857.38C1163.28 2855.94 1161.59 2854.48 1159.9 2853.01C1159.35 2852.55 1158.83 2852.08 1158.29 2851.59C1156.85 2850.33 1155.43 2849.07 1154 2847.76L1151.34 2845.34C1148.15 2842.43 1145 2839.46 1141.88 2836.44C1141.07 2835.68 1140.19 2834.9 1139.48 2834.1C1136.27 2830.97 1133.11 2827.77 1130 2824.54L1128.39 2822.86C1126.6 2821 1124.82 2819.12 1123.1 2817.24C1119.6 2813.49 1116.17 2809.67 1112.81 2805.8C1111.3 2804.11 1109.82 2802.42 1108.36 2800.6C1107.7 2799.83 1107.04 2799.06 1106.4 2798.29L1103.17 2794.38C1102.45 2793.49 1101.74 2792.68 1101.03 2791.72C1100 2790.47 1099 2789.21 1098.02 2787.96C1097.97 2787.92 1097.93 2787.87 1097.9 2787.81L1095.91 2785.27C1094.57 2783.58 1093.25 2781.88 1091.93 2780.19C1090.46 2778.24 1089 2776.29 1087.57 2774.33L1085.49 2771.47L1084.72 2770.41C1084.6 2770.26 1084.49 2770.11 1084.4 2769.95C1083.8 2769.15 1083.25 2768.36 1082.71 2767.56C1082.66 2767.52 1082.63 2767.47 1082.6 2767.41C1081.95 2766.48 1081.29 2765.55 1080.64 2764.6C1078.55 2761.64 1076.51 2758.67 1074.54 2755.66C1073.34 2753.89 1072.18 2752.09 1071.01 2750.28C1069.84 2748.47 1068.39 2746.19 1067.09 2744.12L1064.81 2740.43L1063.25 2737.87C1060.73 2733.69 1058.27 2729.47 1055.87 2725.21C1055.34 2724.3 1054.84 2723.38 1054.33 2722.45C1053.64 2721.24 1052.96 2720.02 1052.32 2718.8C1051.45 2717.22 1050.63 2715.65 1049.78 2714.06C1049.62 2713.78 1049.47 2713.49 1049.34 2713.2C1048.65 2711.94 1048.01 2710.71 1047.36 2709.45C1046.55 2707.9 1045.76 2706.34 1044.98 2704.77C1044.93 2704.7 1044.9 2704.63 1044.88 2704.55C1044.1 2703.02 1043.34 2701.48 1042.6 2699.94C1041.85 2698.4 1040.91 2696.56 1040.2 2694.98L1039.47 2693.44L1039.27 2693.02C1038.58 2691.55 1037.88 2690.07 1037.22 2688.58C1037.22 2688.53 1037.22 2688.48 1037.22 2688.43C1036.77 2687.43 1036.31 2686.43 1035.87 2685.44C1034.92 2683.35 1034 2681.25 1033.08 2679.14C1031.7 2675.75 1030.27 2672.34 1028.81 2668.9C980.486 2557.04 892.158 2467.3 781.164 2417.32C842.982 2389.98 909.831 2375.9 977.409 2376C986.885 2376 996.293 2376.27 1005.63 2376.81C1008.95 2377 1012.26 2377.23 1015.57 2377.49L1020.31 2377.88C1021.76 2378 1023.2 2378.13 1024.65 2378.29H1025.36L1026.09 2378.37C1027.05 2378.37 1028.03 2378.56 1028.99 2378.67L1031.7 2378.96L1035.69 2379.42H1035.77L1037.61 2379.64L1042.85 2380.32C1044.19 2380.49 1045.51 2380.67 1046.84 2380.87L1048.07 2381.04L1054.28 2381.99L1057.35 2382.5H1057.79H1058L1062.42 2383.26L1066.63 2384.02L1067.88 2384.26L1069.12 2384.5L1069.62 2384.6L1070.1 2384.68C1071.4 2384.92 1072.68 2385.17 1073.97 2385.44L1076.91 2386.05L1077.57 2386.19L1081.05 2386.93C1083.43 2387.44 1085.82 2387.98 1088.2 2388.54L1092.51 2389.58L1094.32 2390.02L1095.75 2390.37L1097.17 2390.73H1097.46H1097.6L1101.6 2391.78L1102.28 2391.94L1103.02 2392.15L1106.93 2393.21L1107.3 2393.32L1111.57 2394.52L1113.4 2395.04L1114.02 2395.23L1117.05 2396.13C1119.87 2396.97 1122.7 2397.82 1125.5 2398.75L1127.58 2399.41L1128.41 2399.68L1131.5 2400.71C1131.91 2400.83 1132.31 2400.97 1132.7 2401.12C1133.9 2401.51 1135.1 2401.91 1136.28 2402.34L1140.1 2403.67C1141.24 2404.06 1142.35 2404.47 1143.48 2404.89L1147.96 2406.59C1149.91 2407.3 1151.83 2408.04 1153.76 2408.8C1154.59 2409.11 1155.45 2409.45 1156.24 2409.79L1157.93 2410.48L1159.74 2411.21L1165.59 2413.63L1169.77 2415.41L1174.31 2417.4C1175.5 2417.93 1176.7 2418.45 1177.86 2418.99L1181.39 2420.69L1183.32 2421.58L1184.4 2422.11C1186.28 2422.99 1188.17 2423.89 1190.05 2424.8C1191.92 2425.71 1193.58 2426.49 1195.34 2427.42L1198.97 2429.28L1200.66 2430.11C1202.15 2430.88 1203.62 2431.64 1205.07 2432.43C1206.88 2433.38 1208.69 2434.36 1210.5 2435.36L1213.37 2436.95C1215.18 2437.95 1216.99 2438.97 1218.8 2440.02L1222.45 2442.13L1225.2 2443.82L1229.01 2446.11L1232.84 2448.46C1234.18 2449.29 1235.51 2450.16 1236.83 2450.97C1238.15 2451.78 1239.49 2452.66 1240.8 2453.51C1243.44 2455.2 1246.04 2456.89 1248.65 2458.69C1249.95 2459.57 1251.25 2460.38 1252.53 2461.34C1255.1 2463.1 1257.67 2464.9 1260.22 2466.74C1265.31 2470.4 1270.32 2474.15 1275.27 2477.98L1278.95 2480.88L1282.62 2483.81L1286.25 2486.78C1287.46 2487.77 1288.66 2488.77 1289.85 2489.78C1291.29 2490.98 1292.71 2492.2 1294.11 2493.4L1295.21 2494.35L1296.51 2495.48C1297.85 2496.64 1299.16 2497.8 1300.48 2498.99L1303.69 2501.88L1303.96 2502.14L1304.44 2502.58L1306.13 2504.19L1306.72 2504.73L1307.24 2505.22C1309.53 2507.33 1311.81 2509.48 1314 2511.65C1317.38 2514.9 1320.71 2518.2 1323.99 2521.55C1325.09 2522.67 1326.17 2523.79 1327.26 2524.94C1329.09 2526.83 1330.91 2528.75 1332.7 2530.68C1333.64 2531.69 1334.59 2532.71 1335.52 2533.74C1336.45 2534.77 1337.06 2535.43 1337.8 2536.24C1339.39 2537.94 1340.96 2539.76 1342.52 2541.54C1343.75 2542.93 1344.97 2544.35 1346.17 2545.76L1349.21 2549.33L1352.2 2552.93L1353.5 2554.51C1354.77 2556.07 1356.04 2557.62 1357.29 2559.2C1357.54 2559.52 1357.8 2559.82 1358.03 2560.14L1359.32 2561.84C1359.76 2562.38 1360.18 2562.94 1360.62 2563.53L1361.01 2564.04C1361.97 2565.27 1362.93 2566.51 1363.88 2567.76C1364.83 2569.01 1365.77 2570.25 1366.7 2571.5L1369.49 2575.28L1372.25 2579.09C1373.16 2580.35 1374.07 2581.64 1374.97 2582.93C1375.86 2584.21 1376.78 2585.48 1377.66 2586.79L1380.31 2590.66C1381.17 2591.97 1382 2593.27 1382.91 2594.59L1385.48 2598.52C1388.05 2602.47 1390.55 2606.46 1392.99 2610.5C1393.81 2611.86 1394.68 2613.19 1395.42 2614.55C1396.16 2615.9 1397.11 2617.25 1397.8 2618.63C1398.5 2620 1399.37 2621.35 1400.15 2622.72C1400.66 2623.62 1401.18 2624.52 1401.67 2625.43C1402.16 2626.34 1402.64 2627.12 1403.09 2627.99C1403.55 2628.85 1404.19 2629.98 1404.78 2630.98L1405.1 2631.56C1405.75 2632.74 1406.39 2633.94 1407.01 2635.15C1407.64 2636.35 1408.38 2637.74 1409.04 2639.04C1409.7 2640.34 1410.23 2641.32 1410.82 2642.42C1410.87 2642.52 1410.91 2642.62 1410.95 2642.73L1411.29 2643.36V2643.51C1412.35 2645.62 1413.42 2647.76 1414.45 2649.89C1414.81 2650.6 1415.14 2651.31 1415.48 2652.02L1417.51 2656.3C1418.19 2657.74 1418.85 2659.18 1419.5 2660.62C1420.54 2662.87 1421.55 2665.12 1422.53 2667.39C1422.87 2668.14 1423.19 2668.88 1423.51 2669.64C1423.83 2670.4 1424.2 2671.22 1424.52 2672.01L1425.23 2673.71C1425.99 2675.48 1426.72 2677.26 1427.45 2679.05C1427.77 2679.85 1428.09 2680.63 1428.39 2681.42C1428.7 2682.22 1429.16 2683.32 1429.53 2684.27V2684.39C1430.17 2685.98 1430.78 2687.59 1431.39 2689.19C1431.83 2690.32 1432.25 2691.45 1432.65 2692.58C1433.78 2695.46 1434.83 2698.34 1435.8 2701.24C1436.24 2702.48 1436.66 2703.73 1437.08 2704.97C1437.5 2706.2 1438.05 2707.78 1438.5 2709.18C1438.57 2709.35 1438.62 2709.53 1438.67 2709.71C1439.03 2710.72 1439.37 2711.76 1439.68 2712.81C1439.82 2713.16 1439.94 2713.53 1440.04 2713.91C1440.14 2714.28 1440.17 2714.28 1440.23 2714.46L1441.54 2718.66C1441.93 2719.93 1442.32 2721.18 1442.69 2722.45C1443.07 2723.72 1443.56 2725.35 1443.98 2726.8C1444.1 2727.16 1444.2 2727.53 1444.3 2727.89L1444.65 2729.16C1444.98 2730.27 1445.3 2731.41 1445.6 2732.54C1446.04 2734.08 1446.45 2735.64 1446.87 2737.2C1447.29 2738.75 1447.75 2740.58 1448.17 2742.28C1448.54 2743.68 1448.9 2745.1 1449.23 2746.52L1449.34 2746.9C1449.44 2747.34 1449.56 2747.79 1449.66 2748.25C1449.76 2748.71 1449.81 2748.86 1449.88 2749.18V2749.35C1450.08 2750.25 1450.3 2751.16 1450.5 2752.08C1450.7 2752.99 1450.82 2753.41 1450.96 2754.07C1451.23 2755.21 1451.48 2756.36 1451.74 2757.46C1451.99 2758.56 1452.24 2759.73 1452.48 2760.84C1453.11 2763.81 1453.71 2766.78 1454.29 2769.75C1454.85 2773.69 1455.56 2777.58 1456.4 2781.44C1465.36 2822.99 1488.27 2860.21 1521.29 2886.9C1554.32 2913.6 1595.48 2928.16 1637.92 2928.16C1638.94 2928.16 1639.95 2928.16 1640.95 2928.16H1643.47H1644.99H1645.94C1656.2 2927.76 1666.42 2926.49 1676.48 2924.37C1682.25 2923.15 1687.96 2921.64 1693.58 2919.84L1694.16 2919.67L1694.68 2919.51L1695.15 2919.38L1695.54 2919.26C1702.17 2917.21 1708.12 2915.1 1713.49 2912.84Z" fill="#45CAF5"/>
</g>
<g opacity="0.4" clip-path="url(#clip2_0_1)">
<path d="M1.50546 3042.67C34.3749 3070.12 78.2803 3104.76 131.705 3141.73C262.883 3232.52 376.393 3285.22 434.905 3310.23C642.484 3398.96 823.148 3421.52 911.66 3431.82C989.438 3440.88 1166.55 3456.53 1364.68 3499.61C1407.19 3508.85 1493.62 3526.17 1534.86 3601.85C1544 3618.67 1562.31 3657.16 1558.36 3706.37C1553.31 3769.37 1515.36 3808.61 1499.13 3825.41C1456.09 3869.95 1407.23 3880.9 1386.19 3884.16C1404.58 3867.24 1423.6 3845.12 1419.12 3826.96C1412.46 3800.02 1356.89 3793.05 1272.62 3791.46C1120.84 3788.63 999.75 3799.11 971.236 3801.96C859.542 3813.02 776.324 3810.27 701.857 3809.63C513.762 3808 370.614 3777.99 260.985 3754.39C100.734 3719.86 -56.5631 3670.04 -209.18 3605.46C-138.945 3417.86 -68.7164 3230.26 1.50546 3042.67Z" fill="#01A0E4"/>
<path d="M2131.02 3849.3C2027.26 3839.96 1923.09 3837.47 1819.06 3841.85C1794.42 3842.85 1774.56 3843.98 1755.33 3845.4C1610.43 3856.09 1506.1 3869.78 1458.89 3875.93C1302.39 3896.31 1179.86 3896.16 1028.6 3895.99C902.809 3895.84 717.84 3888.82 713.232 3848.51C711.677 3834.97 730.885 3820.75 748.985 3810.2C730.609 3810.42 712.346 3813.48 694.711 3819.28C680.048 3824.08 640.702 3837.91 612.641 3877.85C578.781 3926.07 581.716 3983.82 583.526 4019.41C585.162 4051.72 591.734 4080.71 597.378 4096.54C629.944 4187.79 766.03 4218.16 874.484 4238.57C1069.71 4275.21 1125.06 4269.77 1318.2 4298.86C1437.47 4316.98 1555.76 4342.44 1672.51 4375.11C1787.36 4407.22 1834.26 4427.79 1874.81 4450.66C1979.3 4509.56 2050.22 4586.06 2092.59 4639.63C2105.4 4376.18 2118.21 4112.74 2131.02 3849.3Z" fill="#45CAF5"/>
</g>
<defs>
<clipPath id="clip0_0_1">
<rect width="2322.02" height="1973.71" fill="white" transform="translate(-399.836 704)"/>
</clipPath>
<clipPath id="clip1_0_1">
<rect width="1139" height="942" fill="white" transform="translate(781.164 2376)"/>
</clipPath>
<clipPath id="clip2_0_1">
<rect width="2341.33" height="1545.64" fill="white" transform="translate(-206.629 3070) rotate(0.27318)"/>
</clipPath>
</defs>
</svg>
