<svg width="1920" height="1430" fill="none" xmlns="http://www.w3.org/2000/svg"><g opacity=".4" clip-path="url(#a)"><path d="M-81.112-25.008c32.88 25.21 76.8 57.023 130.238 90.975C180.34 149.35 293.87 197.77 352.392 220.75c207.613 81.519 388.286 102.299 476.802 111.788 77.781 8.348 254.896 22.777 453.046 62.399 42.51 8.499 128.95 24.426 170.22 93.908 9.14 15.445 27.47 50.781 23.54 95.94-5.03 57.823-42.96 93.825-59.18 109.242-43.03 40.865-91.88 50.899-112.92 53.879 18.38-15.519 37.39-35.82 32.91-52.485-6.67-24.735-62.24-31.15-146.52-32.641-151.78-2.664-272.862 6.913-301.375 9.519-111.69 10.105-194.909 7.552-269.376 6.93-188.095-1.565-331.255-29.169-440.893-50.873-160.264-31.753-317.58-77.548-470.223-136.881A8172347.55 8172347.55 0 0 0-81.112-25.008z" fill="#01A0E4"/><path d="M2048.72 716.198a2579.886 2579.886 0 0 0-311.97-6.96c-24.64.909-44.5 1.944-63.73 3.238-144.9 9.751-249.22 22.273-296.43 27.901-156.49 18.649-279.02 18.465-430.278 18.247-125.79-.189-310.761-6.708-315.385-43.703-1.561-12.432 17.642-25.472 35.738-35.15a194.888 194.888 0 0 0-54.27 8.314c-14.661 4.397-54.002 17.075-82.047 53.73-33.842 44.245-30.884 97.25-29.06 129.92 1.649 29.651 8.232 56.265 13.882 70.8C547.771 1026.3 683.87 1054.23 792.332 1073c195.241 33.71 250.588 28.73 443.738 55.51a3202.09 3202.09 0 0 1 354.34 70.13c114.86 29.51 161.77 48.41 202.33 69.42 104.52 54.11 175.46 124.35 217.85 173.53 12.7-241.8 25.41-483.597 38.13-725.392z" fill="#45CAF5"/></g><defs><clipPath id="a"><path fill="#fff" transform="rotate(.273 -144.617 -60662.772)" d="M0 0h2341.33v1418.67H0z"/></clipPath></defs></svg>