<svg id="extended" xmlns="http://www.w3.org/2000/svg" viewBox="0 0 1134.56 211.65"><defs><linearGradient id="linear-gradient" x1="595.36" y1="3060.68" x2="465.05" y2="2893.89" gradientTransform="matrix(1 0 0 -1 -424.38 3083.11)" gradientUnits="userSpaceOnUse"><stop offset="0" stop-color="#bbbbd4"/><stop offset=".11" stop-color="#b5b6ce"/><stop offset=".36" stop-color="#9499ae"/><stop offset=".73" stop-color="#687383"/><stop offset=".92" stop-color="#576473"/><stop offset="1" stop-color="#556271"/></linearGradient><style>.cls-2{font-family:Poppins-Medium,Poppins;font-weight:500}.cls-5{fill:#fff}.cls-6{fill:#45caf5}.cls-7{fill:#01a0e4}</style></defs><text transform="matrix(.96 0 0 1 226.17 99.83)" style="font-size:68px;fill:#015072;font-family:Poppins-SemiBold,Poppins;font-weight:600" id="Layer_2_copy_2" data-name="Layer 2 copy 2">HUMAN RIGHTS <tspan class="cls-2" x="532.43" y="0">AND </tspan><tspan x="694.75" y="0">PEOPLE</tspan><tspan x="0" y="59">EMPOWERMENT </tspan><tspan class="cls-2" x="544.13" y="59">CENTER</tspan></text><g id="Layer_3" data-name="Layer 3"><g id="Bilog"><circle cx="105.83" cy="105.83" r="105.83" style="fill:url(#linear-gradient)"/><g style="opacity:.8"><path class="cls-5" d="M856.67 1292.9c-10.19 7.17-27.35 17.6-47.22 28.46-33 18.05-61 30.46-62.46 27.73s24-19.57 57-37.62c18.63-10.18 35.65-18.57 47.21-23.46q2.8 2.34 5.47 4.89zM865.1 1302c-11.08 7.59-29.14 18.46-49.92 29.82-35.44 19.38-65.38 32.87-66.88 30.14s26-20.65 61.47-40c20-10.92 38.22-20 50.6-25.31 1.63 1.73 3.21 3.53 4.73 5.35zM872.21 1311.73c-11.76 7.88-30.23 18.91-51.37 30.47-37.25 20.36-68.66 34.66-70.16 31.93s27.5-21.46 64.75-41.82c20.76-11.35 39.69-20.82 52.65-26.5q2.16 2.9 4.13 5.92zM792.33 1290.05c-14 7.67-26.61 11.66-28.1 8.94s8.66-11.17 22.69-18.84 26.61-11.67 28.1-8.94-8.67 11.17-22.69 18.84zM835 1276.72c-6 5.45-20 14.57-36.94 23.81-23.63 12.92-44 21.18-45.49 18.44s16.45-15.41 40.08-28.33c14.56-8 27.87-14.15 36.3-17.09q3.05 1.45 6.05 3.17zM846.78 1284.45c-8.75 6.53-24.56 16.32-43.06 26.43-29.3 16-54.25 26.79-55.75 24.06s21-17.93 50.34-34c16.75-9.16 32.09-16.6 42.43-20.78 2.06 1.39 4.08 2.84 6.04 4.29zM888.52 1357c-10.36 7.08-26.47 16.79-44.9 26.86-33 18.05-61 30.46-62.46 27.73s24.05-19.59 57.05-37.59c19.73-10.78 37.66-19.56 49.21-24.29q.68 3.6 1.1 7.29zM889.2 1368.94v1.29c-9.11 6.4-23.42 15.13-39.84 24.11-29.24 16-54.15 26.74-55.65 24s21-17.9 50.24-33.88c18.26-10 34.84-17.92 45.07-21.81q.18 3.12.18 6.29zM888.91 1376.75q-.27 3.68-.8 7.29c-7.16 5.46-19.14 13-33.1 20.66-23.63 12.91-44 21.17-45.48 18.44s16.45-15.42 40.07-28.33c16.4-8.99 31.28-15.71 39.31-18.06zM878.07 1322c-11.75 7.89-30.31 19-51.57 30.6-37.25 20.37-68.66 34.67-70.15 31.94s27.49-21.45 64.74-41.82c21.27-11.63 40.63-21.27 53.6-26.9 1.2 1.96 2.31 4.03 3.38 6.18zM882.84 1333c-11.62 7.79-29.81 18.65-50.61 30-36.8 20.12-67.85 34.22-69.34 31.49s27.13-21.26 63.93-41.39c21.22-11.6 40.52-21.2 53.35-26.73q1.46 3.28 2.67 6.63zM886.33 1344.57c-11.17 7.53-28.56 17.94-48.44 28.81-35.44 19.38-65.38 32.87-66.87 30.14s26-20.65 61.46-40c20.72-11.33 39.55-20.65 51.92-25.89.72 2.27 1.37 4.59 1.93 6.94zM860.67 1415.05c-14 7.67-26.6 11.67-28.1 8.94s8.67-11.16 22.69-18.83 26.61-11.67 28.1-8.94-8.66 11.16-22.69 18.83z" transform="translate(-677.55 -1263.11)"/></g></g><g id="Layer_8" data-name="Layer 8"><path class="cls-6" d="M850.1 1347.07a25 25 0 0 0-.71 12.3c.1.55.23 1.09.37 1.62a25.09 25.09 0 0 1 .3 7.44c-.25 1.54-.56 3.06-.92 4.57a65 65 0 0 1-3.77 11.12 64.54 64.54 0 0 1-12.14 5.3h-.07l-1.08.34a25 25 0 0 1-30.88-17.26 24.62 24.62 0 0 1-.8-4.07 65.42 65.42 0 0 0 25.29-39.76c0-.23.09-.45.13-.7a15.45 15.45 0 0 1 26.5-7.13l.42.48a24.89 24.89 0 0 0 18.61 8.31h1.26a25 25 0 0 0-22.51 17.44z" transform="translate(-677.55 -1263.11)"/><path class="cls-6" d="M843 1389a65.5 65.5 0 0 1-80 30.07 106.33 106.33 0 0 0 24.64-27.33A65.57 65.57 0 0 0 843 1389z" transform="translate(-677.55 -1263.11)"/><path class="cls-7" d="M721.22 1438.87a105.48 105.48 0 0 0 9.2-43.21v-2.83a65.62 65.62 0 0 0 32.56 26.23 105.24 105.24 0 0 1-41.76 19.81zM845.48 1384.07a65.07 65.07 0 0 1-32.15 8.44c-1.28 0-2.54 0-3.8-.11a65.44 65.44 0 0 1-56.27-39.4l-.58-1.38a65.6 65.6 0 0 0-33.31-33.78 65.24 65.24 0 0 1 26.41-5.55c1.27 0 2.54 0 3.8.11a65.43 65.43 0 0 1 60.42 52.83c.08.53.17 1 .29 1.57A25 25 0 0 0 840 1386a24.73 24.73 0 0 0 5.48-1.93z" transform="translate(-677.55 -1263.11)"/></g></g></svg>