<svg xmlns="http://www.w3.org/2000/svg" viewBox="0 0 930.7 930.7"><defs><style>.cls-1{fill:#65c8d0;}</style></defs><g id="Layer_2" data-name="Layer 2"><path class="cls-1" d="M965.35,500C965.35,757,757,965.35,500,965.35S34.65,757,34.65,500,243,34.65,500,34.65a463.56,463.56,0,0,1,304.1,113.1,287.85,287.85,0,0,0-368,102.48,304.2,304.2,0,0,0-83.65-16.72c-5.83-.34-11.79-.51-17.73-.51A303.22,303.22,0,0,0,211.28,259l-36.95,16.34,36.86,16.54A269.43,269.43,0,0,1,348.52,431.09c.77,1.77,1.53,3.6,2.36,5.65l.08.2.09.2a305.94,305.94,0,0,0,71.39,101.62,288.42,288.42,0,0,0,61.64,80.06,446.65,446.65,0,0,1-77.05,81A271.89,271.89,0,0,1,282.14,595.34L247.26,540.7,249,605.5c.1,3.85.15,7.88.15,12a443.86,443.86,0,0,1-38.86,182.66L195.56,833l35.09-7.92A480.81,480.81,0,0,0,413.37,740.6h0A305.16,305.16,0,0,0,695.1,693.28c137-8.15,248.12-112.15,267.31-245.85A470.25,470.25,0,0,1,965.35,500Z" transform="translate(-34.65 -34.65)"/><path class="cls-1" d="M793.39,403.83a110.38,110.38,0,0,0-3.1,54.08q.68,3.61,1.62,7.12a110.76,110.76,0,0,1,1.37,32.75,0,0,0,0,0,0,0q-1.68,10.15-4.07,20.06-2.85,11.85-6.66,23.32c-3.07,1.94-6.2,3.85-9.34,5.68a105.33,105.33,0,0,1-18.69,7.81c-1.53.47-15.35,4.6-28.82,4.6-43,0-80.78-30.47-89.8-72.46v-.07c-.41-1.88-.75-3.76-1-5.58l-.06-.45-.08-.44a305.15,305.15,0,0,0-8-31.89A286.32,286.32,0,0,0,686,323c.21-1,.41-2,.59-3.07a67.9,67.9,0,0,1,116.51-31.35l.11.12c.59.71,1.21,1.42,1.83,2.11l.05,0a109.5,109.5,0,0,0,81.78,36.52c1.87,0,3.73-.05,5.58-.14A109.91,109.91,0,0,0,793.39,403.83Z" transform="translate(-34.65 -34.65)"/><path class="cls-1" d="M758.41,594.68c-.73,1.25-1.46,2.5-2.21,3.74-.46.76-.92,1.52-1.39,2.27-1,1.73-2.13,3.44-3.22,5.14-.61.95-1.22,1.89-1.85,2.83l-.69,1.05c-.42.63-.84,1.26-1.28,1.89s-1,1.49-1.52,2.23c-.28.41-.56.82-.85,1.22-.58.84-1.17,1.68-1.77,2.51l-.66.91q-1.08,1.51-2.19,3l-.45.61c-.79,1.07-1.59,2.12-2.39,3.17l-.31.39c-.64.84-1.29,1.68-2,2.51-.4.52-.8,1-1.22,1.54q-1.2,1.51-2.43,3t-2.64,3.18l-.43.51c-1,1.13-1.92,2.25-2.9,3.36s-2,2.25-3,3.37q-3.14,3.46-6.38,6.84-1.59,1.66-3.23,3.3c-1.05,1.06-2.12,2.11-3.19,3.16s-1.92,1.86-2.89,2.77c-.54.52-1.09,1-1.64,1.54-.71.67-1.42,1.33-2.13,2-.11.11-.23.22-.34.31-1,.91-2,1.81-3,2.7l-.84.73c-.74.66-1.48,1.31-2.23,1.94-.42.38-.85.74-1.28,1.1-.91.78-1.82,1.55-2.74,2.31l-.3.25q-1.65,1.38-3.33,2.71a2.39,2.39,0,0,1-.26.21c-.82.67-1.65,1.32-2.48,2l-1.5,1.18c-1.06.81-2.12,1.62-3.19,2.42s-2.3,1.72-3.47,2.56l-.34.26c-.88.64-1.77,1.28-2.66,1.9q-6,4.26-12.22,8.21l-.57.36q-1.8,1.14-3.63,2.25l-.1.06c-1.15.7-2.3,1.4-3.46,2.08l-2.82,1.65c-1.2.69-2.41,1.37-3.62,2l-.69.38-2.18,1.19-1.35.73c-.68.37-1.37.73-2.06,1.09q-2.69,1.41-5.4,2.76l-2.23,1.1c-2.23,1.09-4.49,2.15-6.75,3.18l-1.15.52-3.19,1.42q-7.14,3.11-14.48,5.83l-2,.74-1.29.46-2.15.76c-.75.27-1.5.52-2.25.78l-2.22.74c-1.56.52-3.14,1-4.72,1.52-1.36.42-2.73.84-4.1,1.24q-8.06,2.38-16.31,4.29l-1.86.42c-1.43.33-2.86.64-4.3.94l-2.18.44-2.51.49-2.51.47c-.84.16-1.69.31-2.53.45q-7.59,1.32-15.3,2.22l-2.58.29q-2.91.33-5.84.58l-1.93.16-2.6.2-3,.2-1.94.11c-1,.06-1.93.11-2.9.15l-2,.08c-1.1,0-2.2.08-3.3.11-.87,0-1.75,0-2.63.06-1.76,0-3.53,0-5.3,0a287.84,287.84,0,0,1-78.76-10.92q-10.48-3-20.63-6.72,8.24-6.43,16.16-13.23,2.15-1.83,4.26-3.7l1.68-1.47q2-1.78,4-3.6c1.55-1.41,3.09-2.82,4.62-4.25a1.07,1.07,0,0,0,.19-.18c1.57-1.45,3.13-2.93,4.68-4.42s2.9-2.79,4.34-4.21q2.75-2.69,5.43-5.42c1.32-1.34,2.62-2.68,3.92-4,.2-.2.4-.41.59-.62q1.8-1.87,3.56-3.76c.34-.35.67-.7,1-1.06,1.36-1.45,2.7-2.92,4-4.39,1.48-1.62,2.93-3.25,4.37-4.89s2.71-3.09,4.05-4.65l.8-.94q4-4.67,7.86-9.45c1.38-1.7,2.75-3.42,4.09-5.14s2.7-3.45,4-5.19,2.57-3.38,3.83-5.09a.61.61,0,0,0,.12-.16c1-1.27,1.89-2.56,2.83-3.85s1.72-2.37,2.56-3.57q5.32-7.47,10.35-15.16,1.26-1.92,2.49-3.86t2.46-3.88a286.41,286.41,0,0,0,106.94,21.34h0q3.13.07,6.26.07a320.36,320.36,0,0,0,126.7-27Z" transform="translate(-34.65 -34.65)"/><path class="cls-1" d="M410.15,720.41q-8.46,6.62-17.23,12.83a462.36,462.36,0,0,1-166.23,74.28,463.63,463.63,0,0,0,40.44-190q0-6.25-.16-12.48A288.69,288.69,0,0,0,391,712.55Q400.4,716.81,410.15,720.41Z" transform="translate(-34.65 -34.65)"/><path class="cls-1" d="M770.18,568.16a.6.6,0,0,1-.15.09l-2.85,1.54c-1,.55-2,1.08-3,1.61q-3.06,1.61-6.17,3.11l-2.38,1.16-1.16.55-2.71,1.26q-3.15,1.46-6.33,2.82c-1.06.46-2.13.91-3.2,1.35L739,583l-3.24,1.28c-1.08.42-2.16.84-3.25,1.24l-2.18.8c-.55.21-1.1.4-1.64.59l-1.89.67q-1.78.63-3.57,1.23c-.64.22-1.29.44-1.94.64s-1.54.51-2.32.75l-.69.22-2.39.74-.15,0h0L713,592c-.22.07-.43.13-.65.18a108.52,108.52,0,0,1-19.2,3.31h0a270.22,270.22,0,0,1-65.7,8.12h-2.14c-.41,0-.83,0-1.24,0l-1.24,0c-.83,0-1.67,0-2.5-.09l-1.87-.08-1.7-.08-1.7-.09-1.93-.12-1.92-.13c-1.42-.1-2.83-.21-4.25-.33s-2.62-.23-3.92-.36l-2.48-.26-3.18-.36-1.48-.18c-1.34-.16-2.69-.34-4-.53-.78-.1-1.56-.21-2.33-.33s-1.84-.27-2.75-.42l-1.47-.23-.4-.07-1.88-.31-3.81-.68c-1.34-.24-2.68-.5-4-.77l-3.47-.71-3-.67-1.91-.43c-1.22-.28-2.44-.57-3.65-.87s-2.24-.55-3.36-.84c-1.52-.39-3-.79-4.53-1.21L554,593l-1.88-.53-4-1.18q-2.82-.85-5.61-1.76l-2.83-.95c-1.11-.37-2.22-.75-3.32-1.14l-1.39-.49-2.25-.81-2-.75-1.51-.57-1.38-.53q-2.58-1-5.13-2-1.78-.72-3.54-1.47l-3.6-1.57c-1.18-.52-2.36-1.05-3.53-1.59L508.45,576c-3.52-1.67-7-3.41-10.44-5.22-2.24-1.18-4.46-2.38-6.66-3.62-1.08-.6-2.15-1.21-3.21-1.82l-.36-.21-3.09-1.82c-1.1-.66-2.2-1.32-3.29-2l-3.26-2-2.6-1.66q-1.92-1.26-3.83-2.53c-1.06-.71-2.12-1.43-3.17-2.16q-1.31-.89-2.58-1.8l-1.17-.83c-.72-.51-1.44-1-2.15-1.56-.2-.13-.39-.27-.58-.42l-1.84-1.36c-.62-.45-1.25-.92-1.87-1.4s-1-.77-1.54-1.17q-3.22-2.48-6.39-5.05c-.6-.48-1.19-1-1.78-1.46-1-.83-2-1.67-3-2.52s-2-1.71-3-2.58c-.32-.27-.63-.55-.95-.84-.85-.74-1.69-1.49-2.54-2.26l-1.57-1.43q-2.83-2.58-5.6-5.26c-.48-.45-1-.91-1.42-1.38-1.9-1.85-3.77-3.74-5.61-5.65L424,515c-1.06-1.1-2.11-2.21-3.13-3.32q-3.11-3.33-6.09-6.76c-.89-1-1.77-2-2.63-3.07-.39-.46-.78-.91-1.16-1.37l-1.91-2.31c-.43-.52-.85-1-1.27-1.57-.61-.74-1.2-1.48-1.78-2.22a.28.28,0,0,1-.07-.09l-1.18-1.5c-.79-1-1.57-2-2.35-3v0q-1.31-1.73-2.58-3.46l-1.23-1.69-.46-.63a2.22,2.22,0,0,1-.19-.27c-.35-.47-.68-.94-1-1.41a.24.24,0,0,1-.06-.09c-.39-.55-.78-1.1-1.16-1.66q-1.86-2.62-3.61-5.28c-.71-1.05-1.4-2.11-2.09-3.18s-1.55-2.42-2.32-3.64l-1.35-2.18-.92-1.51q-2.24-3.71-4.37-7.48c-.31-.54-.61-1.08-.91-1.63-.41-.72-.81-1.44-1.19-2.16-.51-.93-1-1.86-1.5-2.8,0,0,0,0,0,0a4.09,4.09,0,0,1-.26-.51c-.41-.74-.79-1.47-1.17-2.21-.48-.92-.95-1.84-1.41-2.77a.31.31,0,0,1-.06-.13c-.46-.9-.91-1.81-1.35-2.72s-1-2-1.42-2.93l-.43-.91-.12-.25c-.41-.87-.82-1.74-1.21-2.62a.36.36,0,0,1,0-.09c-.27-.59-.54-1.18-.8-1.77q-.84-1.85-1.65-3.72-1.23-3-2.53-6.05A288.61,288.61,0,0,0,218.56,275.41,286.41,286.41,0,0,1,334.67,251q8.41,0,16.7.48,2.94.17,5.88.4l2.8.23c.86.07,1.71.15,2.57.24l.42,0,.43.05c.57,0,1.15.11,1.72.18l1.6.17,2.36.27h.05l1.09.13,3.1.4c.79.1,1.57.21,2.36.33l.73.1,3.67.56,1.82.3.26,0,.12,0,2.62.45,2.49.45.74.14.73.14.3.06.28.05c.77.14,1.53.29,2.29.45l1.74.36.39.08,2.06.44c1.41.3,2.82.62,4.23.95l2.55.61,1.07.26.85.21.84.21.17,0,.08,0,2.37.62.4.1.44.12,2.31.63.22.06,2.53.71,1.08.31.37.11,1.79.53c1.67.5,3.34,1,5,1.55l1.23.39.49.16,1.83.61c.24.07.48.15.71.24.71.23,1.42.47,2.12.72l2.26.79c.67.23,1.33.47,2,.72l2.65,1c1.15.42,2.29.86,3.43,1.31.49.18,1,.38,1.47.58l1,.41,1.07.43,3.46,1.43,2.47,1.05,2.69,1.18c.7.31,1.41.62,2.1.94l2.09,1,1.14.53.64.31c1.11.52,2.23,1.05,3.34,1.59s2.09,1,3.13,1.55l2.15,1.1,1,.49c.88.45,1.75.9,2.61,1.37,1.07.56,2.14,1.14,3.21,1.73l1.7.94c1.07.59,2.14,1.19,3.21,1.81l2.16,1.25,1.63,1,2.25,1.35,2.27,1.39c.79.49,1.58,1,2.36,1.48s1.57,1,2.35,1.5c1.56,1,3.1,2,4.64,3.06.77.52,1.54,1,2.3,1.57q2.28,1.56,4.55,3.19,4.51,3.24,8.9,6.64l2.18,1.71,2.17,1.73,2.15,1.76q1.07.87,2.13,1.77c.85.71,1.69,1.43,2.52,2.14l.65.56.77.67c.79.68,1.57,1.37,2.35,2.07l1.9,1.71.16.15s0,0,0,0l.28.26h0l0,0,1,.95.35.32.31.29c1.35,1.25,2.7,2.52,4,3.8q3,2.88,5.91,5.85c.65.66,1.29,1.32,1.93,2q1.63,1.68,3.22,3.39c.56.6,1.12,1.2,1.67,1.81s.91,1,1.35,1.48c.94,1,1.87,2.08,2.79,3.13.73.82,1.45,1.66,2.16,2.49l1.8,2.11,1.77,2.13.77.93c.75.92,1.5,1.84,2.24,2.77.15.19.3.37.44.56l.76,1c.26.32.51.65.77,1l.23.3c.57.73,1.14,1.46,1.7,2.2s1.12,1.47,1.67,2.21l1.65,2.23,1.63,2.25c.54.75,1.08,1.51,1.61,2.27s1.07,1.51,1.59,2.28l1.57,2.29c.51.77,1,1.54,1.54,2.32l1.52,2.32q2.28,3.5,4.44,7.08c.49.8,1,1.59,1.44,2.39s1,1.6,1.41,2.41.93,1.61,1.39,2.42c.3.53.61,1.06.9,1.6s.57,1,.84,1.51.65,1.18,1,1.77l.19.34c.38.7.76,1.41,1.13,2.12s.81,1.53,1.2,2.3.7,1.35,1.05,2a1.42,1.42,0,0,1,.08.18l.2.37,0,.09c.63,1.25,1.26,2.51,1.87,3.77.21.42.41.84.61,1.26l1.2,2.53c.4.85.79,1.7,1.18,2.55.61,1.33,1.21,2.66,1.79,4,.2.44.39.88.58,1.33s.41.93.6,1.4l.42,1c.45,1.05.88,2.1,1.31,3.16.19.47.38.93.56,1.4s.45,1.12.67,1.68l0,.07c.38.94.74,1.89,1.1,2.84q.39,1,.75,2,1,2.55,1.86,5.12c.26.73.51,1.47.76,2.2s.57,1.66.84,2.49a2.81,2.81,0,0,1,.1.31q.32.9.6,1.83c.08.21.15.43.21.65s.08.22.11.33l.78,2.48c.23.75.46,1.49.68,2.24s.51,1.71.76,2.57c.07.21.13.43.19.64l.21.75c.19.66.38,1.33.56,2,.26.91.5,1.83.75,2.75s.52,2,.77,3c.22.83.43,1.67.63,2.51l.06.22c.06.26.13.53.19.8s.09.36.13.55l0,.1c.12.53.25,1.07.37,1.61s.19.79.27,1.18c.16.67.31,1.35.46,2s.3,1.34.44,2q.56,2.63,1.07,5.26.5,3.49,1.25,6.91a109.89,109.89,0,0,0,107.4,86.68c.6,0,1.2,0,1.79,0l1.49,0,.9,0,.56,0a108.47,108.47,0,0,0,18.07-2.24h0a101.72,101.72,0,0,0,10.12-2.68l.34-.1.31-.09.28-.08.23-.07C763.48,570.74,767,569.49,770.18,568.16Z" transform="translate(-34.65 -34.65)"/></g></svg>