<svg id="extended" xmlns="http://www.w3.org/2000/svg" xmlns:xlink="http://www.w3.org/1999/xlink" viewBox="0 0 1120.62 211.66"><defs><style>.cls-1{isolation:isolate;}.cls-2{fill:#01a0e4;}.cls-3{fill:url(#linear-gradient);}.cls-4{opacity:0.8;}.cls-5{fill:#fff;}.cls-6{fill:#45caf5;}</style><linearGradient id="linear-gradient" x1="40.7" y1="13051.32" x2="-89.62" y2="13218.12" gradientTransform="translate(130.29 -13028.89)" gradientUnits="userSpaceOnUse"><stop offset="0" stop-color="#bbbbd4"/><stop offset="0.11" stop-color="#b5b6ce"/><stop offset="0.36" stop-color="#9499ae"/><stop offset="0.73" stop-color="#687383"/><stop offset="0.92" stop-color="#576473"/><stop offset="1" stop-color="#556271"/></linearGradient></defs><g id="Layer_2_copy_2" data-name="Layer 2 copy 2"><g class="cls-1"><g class="cls-1"><path class="cls-2" d="M268.47,52.37V99.83h-9.14V79.63H239.81v20.2h-9.14V52.37h9.14V71.88h19.52V52.37Z"/><path class="cls-2" d="M286.49,52.37V81.74q0,4.83,2.41,7.38a10.41,10.41,0,0,0,13.65,0Q305,86.57,305,81.74V52.37h9.21v29.3a19.51,19.51,0,0,1-2.52,10.24,16.14,16.14,0,0,1-6.72,6.29,20.71,20.71,0,0,1-9.37,2.11,20.12,20.12,0,0,1-9.23-2.11,15.66,15.66,0,0,1-6.57-6.29,20.18,20.18,0,0,1-2.41-10.24V52.37Z"/><path class="cls-2" d="M372.66,52.37V99.83h-9.14V69L351.31,99.83h-6.92L332.12,69V99.83H323V52.37h10.38l14.49,35.29,14.49-35.29Z"/><path class="cls-2" d="M409.6,90.79H391.46l-3,9h-9.59L395.24,52.3h10.64l16.39,47.53h-9.66Zm-2.48-7.62-6.59-19.86-6.59,19.86Z"/><path class="cls-2" d="M467.38,99.83h-9.14l-20.7-32.57V99.83H428.4V52.3h9.14l20.7,32.64V52.3h9.14Z"/><path class="cls-2" d="M515.42,99.83l-10-18.5h-4.31v18.5h-9.14V52.37H509a19.31,19.31,0,0,1,9,1.93,13.25,13.25,0,0,1,5.58,5.24,14.77,14.77,0,0,1,1.86,7.38,14.5,14.5,0,0,1-2.61,8.46,13.41,13.41,0,0,1-7.76,5.21L526,99.83ZM501.06,74.19h7.64q3.72,0,5.55-1.87a7.14,7.14,0,0,0,1.82-5.2,6.82,6.82,0,0,0-1.82-5.06c-1.22-1.2-3.07-1.81-5.55-1.81h-7.64Z"/><path class="cls-2" d="M542.9,52.37V99.83h-9.14V52.37Z"/><path class="cls-2" d="M583.64,66.65a10.93,10.93,0,0,0-4.31-4.56,12.72,12.72,0,0,0-6.4-1.56,13.54,13.54,0,0,0-7.18,1.9,12.88,12.88,0,0,0-4.89,5.44A18,18,0,0,0,559.09,76a18.1,18.1,0,0,0,1.8,8.3,13,13,0,0,0,5,5.44,14.27,14.27,0,0,0,7.44,1.9,12.57,12.57,0,0,0,8.56-2.89,14,14,0,0,0,4.37-8.06H570.58V73.45h24.68v8.29a22.8,22.8,0,0,1-3.92,9.18,22.39,22.39,0,0,1-7.73,6.77A22,22,0,0,1,573,100.24a23.21,23.21,0,0,1-11.92-3.1,22.07,22.07,0,0,1-8.35-8.6,25.52,25.52,0,0,1-3-12.51,25.75,25.75,0,0,1,3-12.55,22,22,0,0,1,8.35-8.63,24.54,24.54,0,0,1,25.23.81,19.94,19.94,0,0,1,7.84,11Z"/><path class="cls-2" d="M639.84,52.37V99.83h-9.13V79.63H611.19v20.2h-9.14V52.37h9.14V71.88h19.52V52.37Z"/><path class="cls-2" d="M679.86,52.37v7.68H667.72V99.83h-9.14V60.05H646.44V52.37Z"/><path class="cls-2" d="M693.67,98.61a14.24,14.24,0,0,1-6-4.9,13.32,13.32,0,0,1-2.29-7.55h9.79a6.78,6.78,0,0,0,2,4.63,6.87,6.87,0,0,0,4.92,1.7,7.4,7.4,0,0,0,5-1.6,5.29,5.29,0,0,0,1.83-4.18,4.94,4.94,0,0,0-1.24-3.47,8.64,8.64,0,0,0-3.1-2.14,51.13,51.13,0,0,0-5.13-1.74,53.11,53.11,0,0,1-7.21-2.68,12.77,12.77,0,0,1-4.77-4,11.81,11.81,0,0,1-2-7.17,13.19,13.19,0,0,1,2-7.34,13,13,0,0,1,5.68-4.8,19.92,19.92,0,0,1,8.35-1.66q7.05,0,11.46,3.57a13.39,13.39,0,0,1,4.86,10H707.8a5.55,5.55,0,0,0-2-4,7.33,7.33,0,0,0-4.93-1.6A6.22,6.22,0,0,0,696.6,61a5.3,5.3,0,0,0-1.6,4.15,4.4,4.4,0,0,0,1.21,3.16,9.26,9.26,0,0,0,3,2q1.8.78,5.06,1.8a53.06,53.06,0,0,1,7.25,2.72A13.21,13.21,0,0,1,716.35,79a11.69,11.69,0,0,1,2,7.14,13.92,13.92,0,0,1-1.9,7.08,13.57,13.57,0,0,1-5.55,5.2,18.29,18.29,0,0,1-8.68,1.94A20.89,20.89,0,0,1,693.67,98.61Z"/><path class="cls-2" d="M769.75,90.79H751.6l-3,9H739L755.39,52.3H766l16.38,47.53h-9.66Zm-2.48-7.62-6.59-19.86-6.6,19.86Z"/><path class="cls-2" d="M827.52,99.83h-9.14L797.69,67.26V99.83h-9.14V52.3h9.14l20.69,32.64V52.3h9.14Z"/><path class="cls-2" d="M865.09,55.29a20.48,20.48,0,0,1,8.42,8.33,25.64,25.64,0,0,1,3,12.55,25.2,25.2,0,0,1-3,12.47,20.58,20.58,0,0,1-8.42,8.27,26.31,26.31,0,0,1-12.63,2.92H836.53V52.37h15.93A26.31,26.31,0,0,1,865.09,55.29Zm-1.86,32.37q3.91-4.08,3.92-11.49t-3.92-11.6q-3.91-4.18-11.1-4.18h-6.46V91.74h6.46Q859.32,91.74,863.23,87.66Z"/><path class="cls-2" d="M930.37,74.19A13,13,0,0,1,925,79.57a19.05,19.05,0,0,1-9.3,2H908V99.83h-9.14V52.37h16.78a19.6,19.6,0,0,1,9,1.9,13,13,0,0,1,5.58,5.24,15.91,15.91,0,0,1,.13,14.68Zm-9.5-2.07a6.79,6.79,0,0,0,1.83-5.07q0-6.93-7.44-6.93H908v13.8h7.25Q919,73.92,920.87,72.12Z"/><path class="cls-2" d="M947.7,60.05V72H963V79.5H947.7V92.08H965v7.75H938.56V52.3H965v7.75Z"/><path class="cls-2" d="M982.69,97.18a23,23,0,0,1-8.49-8.67A25.06,25.06,0,0,1,971.07,76a24.92,24.92,0,0,1,3.13-12.48,23.43,23.43,0,0,1,32-8.67,22.71,22.71,0,0,1,8.42,8.67,25.12,25.12,0,0,1,3.1,12.48,25.25,25.25,0,0,1-3.1,12.55,22.64,22.64,0,0,1-8.45,8.67,23.62,23.62,0,0,1-23.5,0Zm19-7.31a13.11,13.11,0,0,0,4.89-5.54,18.78,18.78,0,0,0,1.76-8.37,18.54,18.54,0,0,0-1.76-8.33,12.91,12.91,0,0,0-4.89-5.47,13.69,13.69,0,0,0-7.25-1.91,13.85,13.85,0,0,0-7.28,1.91,12.87,12.87,0,0,0-4.93,5.47A18.68,18.68,0,0,0,980.47,76a18.92,18.92,0,0,0,1.76,8.37,13.06,13.06,0,0,0,4.93,5.54,13.69,13.69,0,0,0,7.28,1.94A13.53,13.53,0,0,0,1001.69,89.87Z"/><path class="cls-2" d="M1056,74.19a12.9,12.9,0,0,1-5.42,5.38,19.05,19.05,0,0,1-9.3,2h-7.64V99.83h-9.14V52.37h16.78a19.6,19.6,0,0,1,9,1.9,13,13,0,0,1,5.58,5.24,15.91,15.91,0,0,1,.13,14.68Zm-9.5-2.07a6.79,6.79,0,0,0,1.83-5.07q0-6.93-7.44-6.93h-7.25v13.8h7.25Q1044.7,73.92,1046.53,72.12Z"/><path class="cls-2" d="M1073.36,92.28h15v7.55h-24.16V52.37h9.14Z"/><path class="cls-2" d="M1103.33,60.05V72h15.34V79.5h-15.34V92.08h17.29v7.75h-26.43V52.3h26.43v7.75Z"/></g><g class="cls-1"><path class="cls-2" d="M239.81,119.05V131h15.34v7.55H239.81v12.58h17.3v7.75H230.67V111.3h26.44v7.75Z"/><path class="cls-2" d="M315.08,111.37v47.46h-9.14V128l-12.21,30.87h-6.92L274.54,128v30.87H265.4V111.37h10.38l14.49,35.29,14.5-35.29Z"/><path class="cls-2" d="M355.59,133.19a13,13,0,0,1-5.42,5.38,19.05,19.05,0,0,1-9.3,2h-7.64v18.22h-9.14V111.37h16.78a19.55,19.55,0,0,1,9,1.9,13,13,0,0,1,5.59,5.24,15.91,15.91,0,0,1,.13,14.68Zm-9.5-2.07a6.79,6.79,0,0,0,1.83-5.07q0-6.93-7.45-6.93h-7.24v13.8h7.24Q344.27,132.92,346.09,131.12Z"/><path class="cls-2" d="M373.18,156.18a23,23,0,0,1-8.49-8.67,26.58,26.58,0,0,1,0-25,23.43,23.43,0,0,1,32-8.67,22.71,22.71,0,0,1,8.42,8.67,26.81,26.81,0,0,1,0,25,22.64,22.64,0,0,1-8.45,8.67,23.62,23.62,0,0,1-23.5,0Zm19-7.31a13.06,13.06,0,0,0,4.9-5.54,18.78,18.78,0,0,0,1.76-8.37,18.54,18.54,0,0,0-1.76-8.33,12.87,12.87,0,0,0-4.9-5.47,13.63,13.63,0,0,0-7.24-1.91,13.85,13.85,0,0,0-7.28,1.91,12.87,12.87,0,0,0-4.93,5.47A18.68,18.68,0,0,0,371,135a18.92,18.92,0,0,0,1.76,8.37,13.06,13.06,0,0,0,4.93,5.54,13.69,13.69,0,0,0,7.28,1.94A13.47,13.47,0,0,0,392.17,148.87Z"/><path class="cls-2" d="M475.93,111.37,463.2,158.83H452.43L443.88,125l-8.95,33.8-10.7.07L412,111.37h9.8l8,36.85,9.27-36.85h10.18L458,148l8.09-36.65Z"/><path class="cls-2" d="M491,119.05V131h15.34v7.55H491v12.58h17.3v7.75H481.87V111.3h26.44v7.75Z"/><path class="cls-2" d="M540.1,158.83,530,140.33h-4.3v18.5H516.6V111.37h17.1a19.31,19.31,0,0,1,9,1.93,13.25,13.25,0,0,1,5.58,5.24,14.77,14.77,0,0,1,1.86,7.38,14.5,14.5,0,0,1-2.61,8.46,13.41,13.41,0,0,1-7.77,5.21l10.9,19.24Zm-14.36-25.64h7.63q3.72,0,5.55-1.87a7.11,7.11,0,0,0,1.83-5.2,6.78,6.78,0,0,0-1.83-5.06c-1.22-1.2-3.07-1.81-5.55-1.81h-7.63Z"/><path class="cls-2" d="M608.12,111.37v47.46H599V128l-12.21,30.87h-6.92L567.58,128v30.87h-9.14V111.37h10.38l14.49,35.29,14.49-35.29Z"/><path class="cls-2" d="M626.27,119.05V131h15.34v7.55H626.27v12.58h17.3v7.75H617.13V111.3h26.44v7.75Z"/><path class="cls-2" d="M690.83,158.83h-9.14L661,126.26v32.57h-9.13V111.3H661l20.7,32.64V111.3h9.14Z"/><path class="cls-2" d="M730.84,111.37v7.68H718.7v39.78h-9.14V119.05H697.42v-7.68Z"/><path class="cls-2" d="M753.85,122.48a22.21,22.21,0,0,1,8.29-8.63,22.84,22.84,0,0,1,11.79-3.1,22.51,22.51,0,0,1,13.38,4.08,21.34,21.34,0,0,1,8,11.29H784.83a11.26,11.26,0,0,0-4.41-5.1,12.55,12.55,0,0,0-6.56-1.7A12.8,12.8,0,0,0,762,126.73a20.68,20.68,0,0,0,0,16.56,13,13,0,0,0,4.83,5.51,13.11,13.11,0,0,0,7.08,1.94,12.29,12.29,0,0,0,6.56-1.74,11.34,11.34,0,0,0,4.41-5.13h10.51a21.17,21.17,0,0,1-8,11.32,24.11,24.11,0,0,1-25.2.95,22.27,22.27,0,0,1-8.29-8.6,27.42,27.42,0,0,1,0-25.06Z"/><path class="cls-2" d="M812.31,119.05V131h15.34v7.55H812.31v12.58h17.3v7.75H803.17V111.3h26.44v7.75Z"/><path class="cls-2" d="M876.87,158.83h-9.14L847,126.26v32.57H837.9V111.3H847l20.69,32.64V111.3h9.14Z"/><path class="cls-2" d="M916.89,111.37v7.68H904.75v39.78h-9.14V119.05H883.46v-7.68Z"/><path class="cls-2" d="M932.69,119.05V131H948v7.55H932.69v12.58H950v7.75H923.55V111.3H950v7.75Z"/><path class="cls-2" d="M981.78,158.83l-10.06-18.5h-4.3v18.5h-9.14V111.37h17.1a19.34,19.34,0,0,1,9,1.93,13.25,13.25,0,0,1,5.58,5.24,14.77,14.77,0,0,1,1.86,7.38,14.5,14.5,0,0,1-2.61,8.46,13.41,13.41,0,0,1-7.77,5.21l10.9,19.24Zm-14.36-25.64h7.63q3.72,0,5.55-1.87a7.11,7.11,0,0,0,1.83-5.2,6.78,6.78,0,0,0-1.83-5.06c-1.22-1.2-3.07-1.81-5.55-1.81h-7.63Z"/></g></g></g><g id="Layer_3" data-name="Layer 3"><g id="Bilog"><circle class="cls-3" cx="105.83" cy="105.83" r="105.83"/><g class="cls-4"><path class="cls-5" d="M179.12,29.79C168.93,37,151.77,47.39,131.9,58.25c-33,18-61,30.46-62.46,27.73s24-19.57,57.05-37.62c18.63-10.18,35.63-18.57,47.21-23.47C175.57,26.46,177.37,28.09,179.12,29.79Z"/><path class="cls-5" d="M187.56,38.89c-11.08,7.59-29.15,18.46-49.93,29.82-35.44,19.38-65.38,32.87-66.87,30.14s26-20.65,61.46-40c20-10.92,38.23-20,50.6-25.31C184.46,35.27,186,37.07,187.56,38.89Z"/><path class="cls-5" d="M194.66,48.62c-11.76,7.88-30.23,18.91-51.37,30.47C106,99.45,74.63,113.75,73.14,111s27.49-21.46,64.74-41.82c20.76-11.35,39.69-20.82,52.65-26.5C192,44.63,193.35,46.6,194.66,48.62Z"/><path class="cls-5" d="M114.78,26.94c-14,7.67-26.61,11.66-28.1,8.94S95.35,24.71,109.37,17,136,5.37,137.47,8.1,128.81,19.27,114.78,26.94Z"/><path class="cls-5" d="M157.46,13.61c-6,5.45-20,14.57-36.95,23.81C96.88,50.34,76.51,58.6,75,55.86S91.48,40.45,115.1,27.53c14.56-8,27.87-14.15,36.3-17.09C153.46,11.43,155.47,12.49,157.46,13.61Z"/><path class="cls-5" d="M169.24,21.34c-8.76,6.53-24.56,16.32-43.07,26.43-29.29,16-54.25,26.79-55.74,24.06s21-17.93,50.33-34c16.76-9.16,32.09-16.6,42.43-20.78C165.26,18.44,167.27,19.89,169.24,21.34Z"/><path class="cls-5" d="M211,93.89c-10.36,7.08-26.47,16.79-44.9,26.86-33,18.05-61,30.46-62.46,27.73s24-19.57,57.06-37.62c19.72-10.78,37.65-19.56,49.2-24.29C210.33,89,210.69,91.43,211,93.89Z"/><path class="cls-5" d="M211.65,105.83v1.29c-9.11,6.4-23.42,15.13-39.84,24.11-29.24,16-54.15,26.74-55.65,24s21-17.9,50.24-33.88c18.26-10,34.84-17.92,45.07-21.81Q211.65,102.66,211.65,105.83Z"/><path class="cls-5" d="M211.36,113.64q-.27,3.67-.8,7.29c-7.15,5.46-19.13,13-33.1,20.66-23.63,12.91-44,21.17-45.48,18.44s16.45-15.42,40.08-28.33C188.49,122.71,203.34,116,211.36,113.64Z"/><path class="cls-5" d="M200.52,58.89c-11.75,7.89-30.31,19-51.57,30.6-37.25,20.37-68.66,34.67-70.15,31.94S106.29,100,143.54,79.61c21.27-11.63,40.63-21.27,53.61-26.9C198.34,54.67,199.46,56.74,200.52,58.89Z"/><path class="cls-5" d="M205.29,69.89c-11.61,7.79-29.8,18.65-50.61,30-36.8,20.12-67.85,34.22-69.34,31.49S112.47,110.12,149.28,90c21.21-11.6,40.52-21.2,53.35-26.73Q204.12,66.55,205.29,69.89Z"/><path class="cls-5" d="M208.78,81.46C197.61,89,180.22,99.4,160.34,110.27,124.9,129.65,95,143.14,93.47,140.41s26-20.65,61.47-40c20.71-11.33,39.55-20.65,51.91-25.89Q207.95,77.9,208.78,81.46Z"/><path class="cls-5" d="M183.12,151.94c-14,7.67-26.61,11.67-28.11,8.94s8.67-11.16,22.7-18.83,26.6-11.67,28.1-8.94S197.12,144.27,183.12,151.94Z"/></g></g><g id="Layer_8" data-name="Layer 8"><path class="cls-6" d="M172.55,84a25.14,25.14,0,0,0-.71,12.3c.11.55.23,1.09.37,1.62a25.09,25.09,0,0,1,.3,7.44h0c-.25,1.54-.56,3.06-.92,4.57A65.3,65.3,0,0,1,167.82,121a64.73,64.73,0,0,1-12.13,5.3h-.08l-1.08.34h0a25,25,0,0,1-30.87-17.23v0a24.39,24.39,0,0,1-.79-4.07,65.68,65.68,0,0,0,21.52-27.43,65,65,0,0,0,3.74-12.28c0-.23.09-.45.13-.7a15.45,15.45,0,0,1,26.5-7.13h0l.42.48h0a24.92,24.92,0,0,0,18.61,8.31h1.27A25,25,0,0,0,172.55,84Z"/><path class="cls-6" d="M165.43,125.89a65.49,65.49,0,0,1-80,30.07,106.48,106.48,0,0,0,24.63-27.33A65.58,65.58,0,0,0,165.43,125.89Z"/><path class="cls-2" d="M43.67,175.76a105.32,105.32,0,0,0,9.2-43.21v-2.83A65.65,65.65,0,0,0,85.44,156,105.24,105.24,0,0,1,43.67,175.76Z"/><path class="cls-2" d="M167.93,121a65,65,0,0,1-32.15,8.44c-1.27,0-2.54,0-3.8-.11a65.44,65.44,0,0,1-56.27-39.4c-.18-.45-.38-.91-.57-1.38A65.71,65.71,0,0,0,41.83,54.73a65.23,65.23,0,0,1,26.4-5.55c1.28,0,2.54,0,3.8.11a65.43,65.43,0,0,1,60.41,52.81c.08.53.18,1,.29,1.57a25,25,0,0,0,35.2,17.27Z"/></g></g></svg>