<svg width="1920" height="1430" viewBox="0 0 1920 1430" fill="none" xmlns="http://www.w3.org/2000/svg">
<g opacity="0.4" clip-path="url(#clip0_133_78)">
<path d="M-81.1117 -25.008C-48.2316 0.201597 -4.31272 32.0146 49.126 65.9675C180.34 149.35 293.87 197.769 352.392 220.749C560.005 302.268 740.678 323.048 829.194 332.537C906.975 340.885 1084.09 355.314 1282.24 394.936C1324.75 403.435 1411.19 419.362 1452.46 488.844C1461.6 504.289 1479.93 539.625 1476 584.784C1470.97 642.607 1433.04 678.609 1416.82 694.026C1373.79 734.891 1324.94 744.925 1303.9 747.905C1322.28 732.386 1341.29 712.085 1336.81 695.42C1330.14 670.685 1274.57 664.27 1190.29 662.779C1038.51 660.115 917.428 669.692 888.915 672.298C777.225 682.403 694.006 679.85 619.539 679.228C431.444 677.663 288.284 650.059 178.646 628.355C18.3819 596.602 -138.934 550.807 -291.577 491.474C-221.415 319.313 -151.26 147.153 -81.1117 -25.008Z" fill="#01A0E4"/>
<path d="M2048.72 716.198C1944.95 707.585 1840.78 705.261 1736.75 709.238C1712.11 710.147 1692.25 711.182 1673.02 712.476C1528.12 722.227 1423.8 734.749 1376.59 740.377C1220.1 759.026 1097.57 758.842 946.312 758.624C820.522 758.435 635.551 751.916 630.927 714.921C629.366 702.489 648.569 689.449 666.665 679.771C648.289 679.965 630.027 682.763 612.395 688.085C597.734 692.482 558.393 705.16 530.348 741.815C496.506 786.06 499.464 839.065 501.288 871.735C502.937 901.386 509.52 928 515.17 942.535C547.771 1026.3 683.87 1054.23 792.332 1073C987.573 1106.71 1042.92 1101.73 1236.07 1128.51C1355.35 1145.19 1473.64 1168.6 1590.41 1198.64C1705.27 1228.15 1752.18 1247.05 1792.74 1268.06C1897.26 1322.17 1968.2 1392.41 2010.59 1441.59C2023.29 1199.79 2036 957.993 2048.72 716.198Z" fill="#45CAF5"/>
</g>
<defs>
<clipPath id="clip0_133_78">
<rect width="2341.33" height="1418.67" fill="white" transform="translate(-289.234) rotate(0.27318)"/>
</clipPath>
</defs>
</svg>
