<svg xmlns="http://www.w3.org/2000/svg" viewBox="0 0 1037.09 1009.87"><defs><linearGradient id="linear-gradient" x1="858.25" y1="98.63" x2="285.22" y2="832.07" gradientUnits="userSpaceOnUse"><stop offset="0" stop-color="#bbbbd4"/><stop offset=".11" stop-color="#b5b6ce"/><stop offset=".36" stop-color="#9499ae"/><stop offset=".73" stop-color="#687383"/><stop offset=".92" stop-color="#576473"/><stop offset="1" stop-color="#556271"/></linearGradient><style>.cls-3,.cls-6{fill:#fff}.cls-4{fill:#45caf5}.cls-5{fill:#01a0e4}.cls-6{font-size:46.87px;font-family:Poppins-Bold,Poppins;font-weight:700}</style></defs><g id="Bilog"><circle cx="571.74" cy="465.35" r="465.35" style="fill:url(#linear-gradient)"/><g style="opacity:.8"><path class="cls-3" d="M827.06 156.23c-44.8 31.55-120.28 77.4-207.65 125.17-145.12 79.34-268.08 133.93-274.65 121.92s105.75-86.07 250.87-165.41c81.91-44.78 156.75-81.68 207.6-103.17q12.28 10.32 23.83 21.49zM864.14 196.36C815.42 229.74 736 277.51 644.6 327.48 488.77 412.69 357.11 472 350.54 460S465 369.2 620.83 284c87.88-48.05 168.08-87.87 222.48-111.31q10.82 11.48 20.83 23.67zM895.39 239.05c-51.7 34.65-132.94 83.14-225.89 134C505.7 462.57 367.59 525.44 361 513.43s120.9-94.35 284.7-183.91C737 279.63 820.24 238 877.24 213q9.51 12.73 18.15 26.05zM544.12 143.71C482.45 177.43 427.13 195 420.56 183s38.11-49.08 99.79-82.81 117-51.32 123.56-39.31-38.11 49.12-99.79 82.83zM731.78 85.1c-26.6 23.94-88.13 64.05-162.46 104.69-103.9 56.8-193.45 93.12-200 81.11s72.33-67.8 176.23-124.6c64-35 122.55-62.21 159.62-75.15q13.54 6.55 26.61 13.95zM783.59 119.08c-38.51 28.71-108 71.76-189.38 116.24C465.4 305.75 355.66 353.1 349.09 341.09s92.53-78.84 221.34-149.26c73.67-40.28 141.1-73 186.57-91.4q13.62 8.85 26.59 18.65zM967.12 438.13c-45.58 31.13-116.4 73.79-197.45 118.11C624.56 635.58 501.59 690.16 495 678.15s105.78-86.06 250.9-165.41c86.75-47.43 165.59-86 216.37-106.81q3 15.93 4.85 32.2zM970.11 490.61v5.66c-40.07 28.17-103 66.55-175.2 106.05-128.58 70.3-238.13 117.55-244.7 105.54s92.35-78.73 220.92-149c80.3-43.9 153.18-78.82 198.19-95.92q.79 13.73.79 27.67zM968.83 524.94q-1.2 16.18-3.52 32.07c-31.46 24-84.14 57.26-145.55 90.84-103.9 56.8-193.44 93.12-200 81.11s72.34-67.8 176.23-124.6c72.24-39.5 137.54-69.09 172.84-79.42zM921.15 284c-51.65 34.67-133.29 83.43-226.76 134.53C530.59 508.1 392.48 571 385.91 559s120.9-94.34 284.7-183.9c93.51-51.13 178.64-93.55 235.71-118.31q7.86 13.31 14.83 27.21zM942.14 332.57c-51.08 34.25-131.07 82-222.55 132.05-161.84 88.49-298.36 150.48-304.92 138.47s119.3-93.47 281.14-182c93.3-51 178.18-93.22 234.61-117.52q6.35 14.28 11.72 29zM957.48 383.46c-49.13 33.12-125.58 78.9-213 126.69C588.64 595.36 457 654.69 450.42 642.68s114.44-90.81 270.28-176c91.09-49.82 173.92-90.78 228.3-113.83q4.77 15.09 8.48 30.61zM844.66 693.38c-61.68 33.72-117 51.32-123.57 39.31s38.11-49.08 99.79-82.81 117-51.32 123.56-39.31-38.11 49.08-99.78 82.81z" transform="translate(66.98 -25.25)"/></g></g><g id="Layer_8" data-name="Layer 8"><path class="cls-4" d="M798.15 394.44a110.38 110.38 0 0 0-3.1 54.08q.68 3.62 1.62 7.12a110.76 110.76 0 0 1 1.33 32.75q-1.68 10.15-4.07 20.06a285.7 285.7 0 0 1-16.56 48.93A285.32 285.32 0 0 1 724 580.67l-.34.11c-1.57.51-3.15 1-4.73 1.46h-.09a110 110 0 0 1-139.29-93.79 288.55 288.55 0 0 0 94.72-120.82 284.8 284.8 0 0 0 16.46-54c.21-1 .41-2 .59-3.07a67.9 67.9 0 0 1 116.51-31.35l.11.12c.59.71 1.21 1.42 1.83 2.11l.05.05A109.5 109.5 0 0 0 891.64 318c1.87 0 3.73 0 5.58-.14a109.91 109.91 0 0 0-99.07 76.58z" transform="translate(66.98 -25.25)"/><path class="cls-4" d="M766.86 578.76c-48.81 89.32-143.61 149.9-252.56 149.9A287 287 0 0 1 414.91 711a467.2 467.2 0 0 0 108.32-120.16 288.3 288.3 0 0 0 243.63-12.08z" transform="translate(66.98 -25.25)"/><path class="cls-5" d="M231.45 798.13a463.63 463.63 0 0 0 40.44-190q0-6.25-.16-12.48A288.44 288.44 0 0 0 414.91 711a463.14 463.14 0 0 1-183.46 87.13zM777.85 557.16a286.32 286.32 0 0 1-141.38 37.09q-8.41 0-16.7-.48c-111.15-6.36-205.4-75.85-247.44-173.16q-1.23-3-2.53-6.05A288.61 288.61 0 0 0 223.32 266a286.41 286.41 0 0 1 116.11-24.41q8.42 0 16.7.48C488.69 249.68 597.19 347 621.8 474.3q.5 3.49 1.25 6.91a109.92 109.92 0 0 0 154.8 75.95z" transform="translate(66.98 -25.25)"/></g><g id="HRPEC"><text class="cls-6" transform="rotate(124.84 53.36 151.026)">H</text><text class="cls-6" transform="rotate(120.7 30.198 164.874)">U</text><text class="cls-6" transform="rotate(115.27 4.654 180.259)">M</text><text class="cls-6" transform="rotate(109.9 -27.652 199.781)">A</text><text class="cls-6" transform="rotate(105.41 -55.613 216.545)">N</text><text class="cls-6" transform="rotate(102.81 -80.146 232.851)"> </text><text class="cls-6" transform="matrix(-.17 .99 -.99 -.17 126.53 373.3)">R</text><text class="cls-6" transform="matrix(-.12 .99 -.99 -.12 121.42 404.51)">I</text><text class="cls-6" transform="rotate(93.48 -137.646 265.851)">G</text><text class="cls-6" transform="rotate(88.79 -174.624 288.19)">H</text><text class="cls-6" transform="rotate(84.64 -211.326 311.066)">T</text><text class="cls-6" transform="matrix(.16 .99 -.99 .16 120.86 521.3)">S</text><text class="cls-6" transform="rotate(78.3 -275.265 352.57)"> </text><text class="cls-6" transform="rotate(75.36 -299.596 363.424)">A</text><text class="cls-6" transform="rotate(70.77 -351.4 394.62)">N</text><text class="cls-6" transform="rotate(66.25 -409.08 429.891)">D</text><text class="cls-6" transform="rotate(63.39 -455.189 464.035)"> </text><text class="cls-6" transform="rotate(60.7 -491.305 481.42)">P</text><text class="cls-6" transform="rotate(57.31 -548.443 517.383)">E</text><text class="cls-6" transform="rotate(53 -623.395 558.635)">O</text><text class="cls-6" transform="rotate(48.7 -721.98 621.484)">P</text><text class="cls-6" transform="matrix(.7 .71 -.71 .7 240.71 775.67)">L</text><text class="cls-6" transform="rotate(42.52 -889.823 726.638)">E</text><text class="cls-6" transform="rotate(40.2 -968.465 782.786)"> </text><text class="cls-6" transform="rotate(37.8 -1053.898 829.44)">E</text><text class="cls-6" transform="matrix(.84 .55 -.55 .84 305.76 833.85)">M</text><text class="cls-6" transform="rotate(28.53 -1515.955 1104.242)">P</text><text class="cls-6" transform="rotate(24.5 -1842.048 1307.67)">O</text><text class="cls-6" transform="rotate(18.2 -2589.312 1726.663)">W</text><text class="cls-6" transform="rotate(13.36 -3634.27 2392.374)">E</text><text class="cls-6" transform="matrix(.99 .17 -.17 .99 480.33 910.7)">R</text><text class="cls-6" transform="matrix(1 .08 -.08 1 512.16 916.32)">M</text><text class="cls-6" transform="rotate(.18 -292445.562 177653.229)">E</text><text class="cls-6" transform="rotate(-3.88 13869.493 -8153.167)">N</text><text class="cls-6" transform="rotate(-8.1 6832.599 -3941.386)">T</text><text class="cls-6" transform="rotate(-10.58 5254.03 -3044.792)"> </text><text class="cls-6" transform="rotate(-14 4076.338 -2237.374)">C</text><text class="cls-6" transform="rotate(-17.62 3258.375 -1791.936)">E</text><text class="cls-6" transform="rotate(-21.59 2705.448 -1443.185)">N</text><text class="cls-6" transform="rotate(-25.69 2308.356 -1215.07)">T</text><text class="cls-6" transform="rotate(-29.5 2049.926 -1049.877)">E</text><text class="cls-6" transform="rotate(-32.75 1857.042 -940.937)">R</text></g></svg>