<svg xmlns="http://www.w3.org/2000/svg" xmlns:xlink="http://www.w3.org/1999/xlink" viewBox="0 0 1037.09 1009.87"><defs><style>.cls-1{fill:url(#linear-gradient);}.cls-2{opacity:0.8;}.cls-3,.cls-6{fill:#fff;}.cls-4{fill:#45caf5;}.cls-5{fill:#01a0e4;}.cls-6{font-size:46.87px;font-family:Poppins-Bold, Poppins;font-weight:700;}</style><linearGradient id="linear-gradient" x1="858.25" y1="98.63" x2="285.22" y2="832.07" gradientUnits="userSpaceOnUse"><stop offset="0" stop-color="#bbbbd4"/><stop offset="0.11" stop-color="#b5b6ce"/><stop offset="0.36" stop-color="#9499ae"/><stop offset="0.73" stop-color="#687383"/><stop offset="0.92" stop-color="#576473"/><stop offset="1" stop-color="#556271"/></linearGradient></defs><g id="Bilog"><circle class="cls-1" cx="571.74" cy="465.35" r="465.35"/><g class="cls-2"><path class="cls-3" d="M827.06,156.23c-44.8,31.55-120.28,77.4-207.65,125.17C474.29,360.74,351.33,415.33,344.76,403.32s105.75-86.07,250.87-165.41c81.91-44.78,156.75-81.68,207.6-103.17Q815.51,145.06,827.06,156.23Z" transform="translate(66.98 -25.25)"/><path class="cls-3" d="M864.14,196.36C815.42,229.74,736,277.51,644.6,327.48,488.77,412.69,357.11,472,350.54,460S465,369.2,620.83,284c87.88-48.05,168.08-87.87,222.48-111.31Q854.13,184.17,864.14,196.36Z" transform="translate(66.98 -25.25)"/><path class="cls-3" d="M895.39,239.05c-51.7,34.65-132.94,83.14-225.89,134C505.7,462.57,367.59,525.44,361,513.43s120.9-94.35,284.7-183.91C737,279.63,820.24,238,877.24,213Q886.75,225.73,895.39,239.05Z" transform="translate(66.98 -25.25)"/><path class="cls-3" d="M544.12,143.71C482.45,177.43,427.13,195,420.56,183s38.11-49.08,99.79-82.81,117-51.32,123.56-39.31S605.8,110,544.12,143.71Z" transform="translate(66.98 -25.25)"/><path class="cls-3" d="M731.78,85.1c-26.6,23.94-88.13,64.05-162.46,104.69-103.9,56.8-193.45,93.12-200,81.11s72.33-67.8,176.23-124.6c64-35,122.55-62.21,159.62-75.15Q718.71,77.7,731.78,85.1Z" transform="translate(66.98 -25.25)"/><path class="cls-3" d="M783.59,119.08c-38.51,28.71-108,71.76-189.38,116.24C465.4,305.75,355.66,353.1,349.09,341.09s92.53-78.84,221.34-149.26c73.67-40.28,141.1-73,186.57-91.4Q770.62,109.28,783.59,119.08Z" transform="translate(66.98 -25.25)"/><path class="cls-3" d="M967.12,438.13c-45.58,31.13-116.4,73.79-197.45,118.11C624.56,635.58,501.59,690.16,495,678.15S600.78,592.09,745.9,512.74c86.75-47.43,165.59-86,216.37-106.81Q965.27,421.86,967.12,438.13Z" transform="translate(66.98 -25.25)"/><path class="cls-3" d="M970.11,490.61c0,1.89,0,3.77,0,5.66-40.07,28.17-103,66.55-175.2,106.05-128.58,70.3-238.13,117.55-244.7,105.54s92.35-78.73,220.92-149c80.3-43.9,153.18-78.82,198.19-95.92Q970.11,476.67,970.11,490.61Z" transform="translate(66.98 -25.25)"/><path class="cls-3" d="M968.83,524.94q-1.2,16.18-3.52,32.07c-31.46,24-84.14,57.26-145.55,90.84-103.9,56.8-193.44,93.12-200,81.11s72.34-67.8,176.23-124.6C868.23,564.86,933.53,535.27,968.83,524.94Z" transform="translate(66.98 -25.25)"/><path class="cls-3" d="M921.15,284c-51.65,34.67-133.29,83.43-226.76,134.53C530.59,508.1,392.48,571,385.91,559s120.9-94.34,284.7-183.9c93.51-51.13,178.64-93.55,235.71-118.31Q914.18,270.1,921.15,284Z" transform="translate(66.98 -25.25)"/><path class="cls-3" d="M942.14,332.57c-51.08,34.25-131.07,82-222.55,132.05C557.75,553.11,421.23,615.1,414.67,603.09s119.3-93.47,281.14-182c93.3-51,178.18-93.22,234.61-117.52Q936.77,317.85,942.14,332.57Z" transform="translate(66.98 -25.25)"/><path class="cls-3" d="M957.48,383.46c-49.13,33.12-125.58,78.9-213,126.69C588.64,595.36,457,654.69,450.42,642.68s114.44-90.81,270.28-176C811.79,416.86,894.62,375.9,949,352.85Q953.77,367.94,957.48,383.46Z" transform="translate(66.98 -25.25)"/><path class="cls-3" d="M844.66,693.38c-61.68,33.72-117,51.32-123.57,39.31s38.11-49.08,99.79-82.81,117-51.32,123.56-39.31S906.33,659.65,844.66,693.38Z" transform="translate(66.98 -25.25)"/></g></g><g id="Layer_8" data-name="Layer 8"><path class="cls-4" d="M798.15,394.44a110.38,110.38,0,0,0-3.1,54.08q.68,3.62,1.62,7.12A110.76,110.76,0,0,1,798,488.39a0,0,0,0,0,0,0q-1.68,10.15-4.07,20.06a285.7,285.7,0,0,1-16.56,48.93A285.32,285.32,0,0,1,724,580.67l-.34.11c-1.57.51-3.15,1-4.73,1.46l-.09,0a110,110,0,0,1-139.29-93.79,288.55,288.55,0,0,0,94.72-120.82,284.8,284.8,0,0,0,16.46-54c.21-1,.41-2,.59-3.07a67.9,67.9,0,0,1,116.51-31.35l.11.12c.59.71,1.21,1.42,1.83,2.11l.05.05A109.5,109.5,0,0,0,891.64,318c1.87,0,3.73,0,5.58-.14A109.91,109.91,0,0,0,798.15,394.44Z" transform="translate(66.98 -25.25)"/><path class="cls-4" d="M766.86,578.76c-48.81,89.32-143.61,149.9-252.56,149.9A287,287,0,0,1,414.91,711,467.2,467.2,0,0,0,523.23,590.84a288.3,288.3,0,0,0,243.63-12.08Z" transform="translate(66.98 -25.25)"/><path class="cls-5" d="M231.45,798.13a463.63,463.63,0,0,0,40.44-190q0-6.25-.16-12.48A288.44,288.44,0,0,0,414.91,711,463.14,463.14,0,0,1,231.45,798.13Z" transform="translate(66.98 -25.25)"/><path class="cls-5" d="M777.85,557.16a286.32,286.32,0,0,1-141.38,37.09q-8.41,0-16.7-.48c-111.15-6.36-205.4-75.85-247.44-173.16q-1.23-3-2.53-6.05A288.61,288.61,0,0,0,223.32,266a286.41,286.41,0,0,1,116.11-24.41q8.42,0,16.7.48C488.69,249.68,597.19,347,621.8,474.3q.5,3.49,1.25,6.91a109.92,109.92,0,0,0,154.8,75.95Z" transform="translate(66.98 -25.25)"/></g><g id="HRPEC"><text class="cls-6" transform="translate(207.8 193.51) rotate(124.84)">H</text><text class="cls-6" transform="matrix(-0.51, 0.86, -0.86, -0.51, 187.39, 222.99)">U</text><text class="cls-6" transform="translate(169.65 253) rotate(115.27)">M</text><text class="cls-6" transform="matrix(-0.34, 0.94, -0.94, -0.34, 150.74, 293.7)">A</text><text class="cls-6" transform="translate(138.37 327.7) rotate(105.41)">N</text><text class="cls-6" transform="translate(129.14 362.63) rotate(102.81)"> </text><text class="cls-6" transform="matrix(-0.17, 0.99, -0.99, -0.17, 126.53, 373.3)">R</text><text class="cls-6" transform="matrix(-0.12, 0.99, -0.99, -0.12, 121.42, 404.51)">I</text><text class="cls-6" transform="translate(119.36 419.38) rotate(93.48)">G</text><text class="cls-6" transform="translate(117.19 456.69) rotate(88.79)">H</text><text class="cls-6" transform="translate(118.12 492.41) rotate(84.64)">T</text><text class="cls-6" transform="matrix(0.16, 0.99, -0.99, 0.16, 120.86, 521.3)">S</text><text class="cls-6" transform="translate(125.8 550.62) rotate(78.3)"> </text><text class="cls-6" transform="translate(127.75 561.44) rotate(75.36)">A</text><text class="cls-6" transform="translate(136.94 596.44) rotate(70.77)">N</text><text class="cls-6" transform="translate(149.16 631.19) rotate(66.25)">D</text><text class="cls-6" transform="translate(163.58 663.16) rotate(63.39)"> </text><text class="cls-6" transform="matrix(0.49, 0.87, -0.87, 0.49, 168.27, 672.96)">P</text><text class="cls-6" transform="translate(183.2 699.52) rotate(57.31)">E</text><text class="cls-6" transform="matrix(0.6, 0.8, -0.8, 0.6, 197.55, 722.17)">O</text><text class="cls-6" transform="matrix(0.66, 0.75, -0.75, 0.66, 220.64, 752.79)">P</text><text class="cls-6" transform="matrix(0.7, 0.71, -0.71, 0.7, 240.71, 775.67)">L</text><text class="cls-6" transform="translate(257.11 792.46) rotate(42.52)">E</text><text class="cls-6" transform="translate(276.5 810) rotate(40.2)"> </text><text class="cls-6" transform="matrix(0.79, 0.61, -0.61, 0.79, 284.64, 817.06)">E</text><text class="cls-6" transform="matrix(0.84, 0.55, -0.55, 0.84, 305.76, 833.85)">M</text><text class="cls-6" transform="translate(343.32 858.14) rotate(28.53)">P</text><text class="cls-6" transform="matrix(0.91, 0.41, -0.41, 0.91, 370.36, 872.93)">O</text><text class="cls-6" transform="matrix(0.95, 0.31, -0.31, 0.95, 405.8, 889.02)">W</text><text class="cls-6" transform="translate(454.45 904.51) rotate(13.36)">E</text><text class="cls-6" transform="matrix(0.99, 0.17, -0.17, 0.99, 480.33, 910.7)">R</text><text class="cls-6" transform="matrix(1, 0.08, -0.08, 1, 512.16, 916.32)">M</text><text class="cls-6" transform="translate(556.67 919.62) rotate(0.18)">E</text><text class="cls-6" transform="translate(583.49 919.82) rotate(-3.88)">N</text><text class="cls-6" transform="matrix(0.99, -0.14, 0.14, 0.99, 620.12, 917.15)">T</text><text class="cls-6" transform="translate(648.37 912.92) rotate(-10.58)"> </text><text class="cls-6" transform="matrix(0.97, -0.24, 0.24, 0.97, 659.26, 911.2)">C</text><text class="cls-6" transform="translate(695.29 902.25) rotate(-17.62)">E</text><text class="cls-6" transform="translate(720.85 894.25) rotate(-21.59)">N</text><text class="cls-6" transform="translate(754.91 880.57) rotate(-25.69)">T</text><text class="cls-6" transform="matrix(0.87, -0.49, 0.49, 0.87, 780.93, 867.98)">E</text><text class="cls-6" transform="translate(804.22 855.04) rotate(-32.75)">R</text></g></svg>