<svg id="extended" xmlns="http://www.w3.org/2000/svg" viewBox="0 0 1134.56 211.65">
  <defs>
    <linearGradient id="linear-gradient" x1="40.7" y1="2948.68" x2="-89.62" y2="2781.89" gradientTransform="matrix(1 0 0 -1 130.29 2971.11)" gradientUnits="userSpaceOnUse">
      <stop offset="0" stop-color="#bbbbd4"/>
      <stop offset=".11" stop-color="#b5b6ce"/>
      <stop offset=".36" stop-color="#9499ae"/>
      <stop offset=".73" stop-color="#687383"/>
      <stop offset=".92" stop-color="#576473"/>
      <stop offset="1" stop-color="#556271"/>
    </linearGradient>
    <style>
      .cls-5{fill:#45caf5}
    </style>
  </defs>
  <text transform="matrix(.96 0 0 1 226.17 99.83)" style="font-size:64px;fill:#015072;font-family:Poppins-SemiBold,Poppins;font-weight:600" id="Layer_2_copy_2" data-name="Layer 2 copy 2">HUMAN RIGHTS AND PEOPLE<tspan x="0" y="59">EMPOWERMENT CENTER</tspan></text>
  <g id="Layer_3" data-name="Layer 3">
    <g id="Bilog">
      <circle cx="105.83" cy="105.83" r="105.83" style="fill:url(#linear-gradient)"/>
      <g style="opacity:.8">
        <path d="M179.12 29.79c-10.19 7.17-27.35 17.6-47.22 28.46-33 18.05-61 30.46-62.46 27.73s24.05-19.57 57.05-37.62c18.63-10.18 35.63-18.57 47.21-23.47 1.87 1.57 3.67 3.2 5.42 4.9Zm8.44 9.1c-11.08 7.59-29.15 18.46-49.93 29.82-35.44 19.38-65.38 32.87-66.87 30.14s26-20.65 61.46-40c20-10.92 38.23-20 50.6-25.31 1.64 1.73 3.22 3.53 4.74 5.35Zm7.1 9.73c-11.76 7.88-30.23 18.91-51.37 30.47-37.25 20.36-68.66 34.66-70.15 31.93s27.49-21.46 64.74-41.82c20.76-11.35 39.69-20.82 52.65-26.5 1.45 1.93 2.82 3.9 4.13 5.92Zm-79.88-21.68c-14 7.67-26.61 11.66-28.1 8.94s8.67-11.17 22.69-18.84 26.61-11.67 28.1-8.94-8.66 11.17-22.69 18.84Zm42.68-13.33c-6 5.45-20 14.57-36.95 23.81-23.63 12.92-44 21.18-45.48 18.44s16.45-15.41 40.07-28.33c14.56-8 27.87-14.15 36.3-17.09 2.06.99 4.07 2.05 6.06 3.17Zm11.78 7.73c-8.76 6.53-24.56 16.32-43.07 26.43-29.29 16-54.25 26.79-55.74 24.06s21-17.93 50.33-34c16.76-9.16 32.09-16.6 42.43-20.78 2.07 1.39 4.08 2.84 6.05 4.29Zm41.73 72.55c-10.36 7.08-26.47 16.79-44.9 26.86-33 18.05-61 30.46-62.46 27.73s24-19.57 57.06-37.62c19.72-10.78 37.65-19.56 49.2-24.29.46 2.42.82 4.86 1.1 7.32Zm.68 11.94v1.29c-9.11 6.4-23.42 15.13-39.84 24.11-29.24 16-54.15 26.74-55.65 24s21-17.9 50.24-33.88c18.26-10 34.84-17.92 45.07-21.81q.18 3.12.18 6.29Zm-.29 7.81q-.27 3.68-.8 7.29c-7.15 5.46-19.13 13-33.1 20.66-23.63 12.91-44 21.17-45.48 18.44s16.45-15.42 40.08-28.33c16.43-8.99 31.28-15.71 39.3-18.06Zm-10.84-54.75c-11.75 7.89-30.31 19-51.57 30.6-37.25 20.37-68.66 34.67-70.15 31.94s27.49-21.45 64.74-41.82c21.27-11.63 40.63-21.27 53.61-26.9 1.19 1.96 2.31 4.03 3.37 6.18Zm4.77 11c-11.61 7.79-29.8 18.65-50.61 30-36.8 20.12-67.85 34.22-69.34 31.49s27.13-21.26 63.94-41.39c21.21-11.6 40.52-21.2 53.35-26.73q1.49 3.28 2.66 6.63Zm3.49 11.57c-11.17 7.53-28.56 17.94-48.44 28.81-35.44 19.38-65.37 32.87-66.87 30.14s26-20.65 61.47-40c20.71-11.33 39.55-20.65 51.91-25.89q1.09 3.37 1.93 6.94Zm-25.66 70.48c-14 7.67-26.61 11.67-28.11 8.94s8.67-11.16 22.7-18.83 26.6-11.67 28.1-8.94-8.69 11.16-22.69 18.83Z" style="fill:#fff"/>
      </g>
    </g>
    <g id="Layer_8" data-name="Layer 8">
      <path class="cls-5" d="M172.55 83.96a25.14 25.14 0 0 0-.71 12.3c.11.55.23 1.09.37 1.62a25.09 25.09 0 0 1 .3 7.44c-.25 1.54-.56 3.06-.92 4.57a65 65 0 0 1-3.77 11.12 64.73 64.73 0 0 1-12.13 5.3h-.08l-1.08.34a25 25 0 0 1-30.88-17.26 24.59 24.59 0 0 1-.79-4.07 65.65 65.65 0 0 0 21.52-27.43 65 65 0 0 0 3.74-12.28c.05-.23.09-.45.13-.7a15.45 15.45 0 0 1 26.5-7.13l.42.48a24.92 24.92 0 0 0 18.61 8.31h1.27a25 25 0 0 0-22.5 17.39Z"/>
      <path class="cls-5" d="M165.43 125.89a65.49 65.49 0 0 1-80 30.07 106.48 106.48 0 0 0 24.63-27.33 65.57 65.57 0 0 0 55.37-2.74Z"/>
      <path d="M43.67 175.76a105.32 105.32 0 0 0 9.2-43.21v-2.83a65.65 65.65 0 0 0 32.57 26.23 105.22 105.22 0 0 1-41.77 19.81Zm124.26-54.8a65 65 0 0 1-32.15 8.44c-1.27 0-2.54 0-3.8-.11a65.45 65.45 0 0 1-56.27-39.4c-.18-.45-.38-.91-.57-1.38a65.67 65.67 0 0 0-33.31-33.78 65.19 65.19 0 0 1 26.4-5.55c1.28 0 2.54 0 3.8.11a65.43 65.43 0 0 1 60.41 52.81c.08.53.18 1 .29 1.57a25 25 0 0 0 35.2 17.27Z" style="fill:#01a0e4"/>
    </g>
  </g>
</svg>
