<svg id="Stacked" xmlns="http://www.w3.org/2000/svg" xmlns:xlink="http://www.w3.org/1999/xlink" viewBox="0 0 1047.28 1299.62"><defs><style>.cls-1{font-size:68px;}.cls-1,.cls-2{fill:#015072;font-family:Poppins-SemiBold, Poppins;font-weight:600;}.cls-2{font-size:283px;}.cls-3{fill:url(#linear-gradient);}.cls-4{opacity:0.8;}.cls-5{fill:#fff;}.cls-6{fill:#45caf5;}.cls-7{fill:#01a0e4;}</style><linearGradient id="linear-gradient" x1="824.01" y1="3849.99" x2="272.35" y2="3143.91" gradientTransform="matrix(1, 0, 0, -1, -81.88, 3944.94)" gradientUnits="userSpaceOnUse"><stop offset="0" stop-color="#bbbbd4"/><stop offset="0.11" stop-color="#b5b6ce"/><stop offset="0.36" stop-color="#9499ae"/><stop offset="0.73" stop-color="#687383"/><stop offset="0.92" stop-color="#576473"/><stop offset="1" stop-color="#556271"/></linearGradient></defs><g id="Layer_2_copy" data-name="Layer 2 copy"><text class="cls-1" transform="translate(14 1181.61) scale(0.96 1)">HUMAN RIGHTS AND PEOPLE<tspan x="0" y="59">EMPOWERMENT CENTER</tspan></text></g><text class="cls-2" transform="translate(0 1121.73) scale(1 1.06)">HRPEC</text><g id="Bilog"><circle class="cls-3" cx="466.3" cy="447.99" r="447.99"/><g class="cls-4"><path class="cls-5" d="M1111.64,195.43c-43.13,30.37-115.8,74.51-199.91,120.5C772,392.31,653.65,444.87,647.33,433.3s101.8-82.86,241.51-159.24c78.85-43.11,150.9-78.63,199.86-99.32Q1100.52,184.67,1111.64,195.43Z" transform="translate(-335.05 -69.33)"/><path class="cls-5" d="M1147.34,234.06C1100.43,266.2,1024,312.19,936,360.29c-150,82-276.77,139.13-283.09,127.58S763.08,400.46,913.1,318.43c84.6-46.25,161.81-84.59,214.18-107.16Q1137.71,222.33,1147.34,234.06Z" transform="translate(-335.05 -69.33)"/><path class="cls-5" d="M1177.42,275.16c-49.77,33.36-128,80-217.47,129C802.26,490.34,669.3,550.87,663,539.31s116.39-90.83,274.08-177c87.9-48,168-88.11,222.91-112.18Q1169.1,262.33,1177.42,275.16Z" transform="translate(-335.05 -69.33)"/><path class="cls-5" d="M839.25,183.38c-59.37,32.46-112.63,49.37-119,37.82S757,174,816.37,141.48s112.63-49.41,119-37.85S898.63,150.92,839.25,183.38Z" transform="translate(-335.05 -69.33)"/><path class="cls-5" d="M1019.91,127c-25.61,23-84.84,61.66-156.4,100.79-100,54.68-186.24,89.64-192.54,78.08s69.63-65.27,169.66-119.95c61.61-33.7,118-59.89,153.66-72.35Q1007.33,119.84,1019.91,127Z" transform="translate(-335.05 -69.33)"/><path class="cls-5" d="M1069.79,159.66c-37.07,27.64-104,69.09-182.32,111.91-124,67.8-229.65,113.39-236,101.82s89.08-75.9,213.09-143.69c70.92-38.78,135.84-70.28,179.61-88Q1057.3,150.23,1069.79,159.66Z" transform="translate(-335.05 -69.33)"/><path class="cls-5" d="M1246.47,466.82c-43.88,30-112,71-190.08,113.7C916.69,656.9,798.31,709.45,792,697.88S893.8,615,1033.5,538.64C1117,493,1192.92,455.85,1241.81,435.82Q1244.69,451.15,1246.47,466.82Z" transform="translate(-335.05 -69.33)"/><path class="cls-5" d="M1249.35,517.34v5.45c-38.57,27.12-99.16,64.06-168.66,102.09C956.9,692.56,851.44,738.05,845.11,726.49S934,650.69,1057.79,583c77.31-42.26,147.47-75.88,190.8-92.34Q1249.36,503.92,1249.35,517.34Z" transform="translate(-335.05 -69.33)"/><path class="cls-5" d="M1248.12,550.39q-1.15,15.57-3.39,30.87c-30.28,23.11-81,55.13-140.12,87.45-100,54.69-186.23,89.65-192.54,78.09s69.64-65.27,169.66-119.95C1151.27,588.82,1214.14,560.33,1248.12,550.39Z" transform="translate(-335.05 -69.33)"/><path class="cls-5" d="M1202.22,318.43C1152.5,351.81,1073.9,398.75,983.92,448c-157.7,86.23-290.65,146.78-297,135.23s116.39-90.82,274.08-177c90-49.23,172-90.07,226.92-113.9Q1195.51,305,1202.22,318.43Z" transform="translate(-335.05 -69.33)"/><path class="cls-5" d="M1222.43,365.19c-49.18,33-126.19,78.94-214.25,127.13-155.81,85.19-287.24,144.87-293.55,133.3s114.85-90,270.65-175.21c89.82-49.1,171.54-89.74,225.86-113.14Q1217.26,351,1222.43,365.19Z" transform="translate(-335.05 -69.33)"/><path class="cls-5" d="M1237.19,414.18c-47.29,31.89-120.89,76-205,122-150,82-276.76,139.15-283.1,127.59s110.18-87.43,260.2-169.44c87.7-48,167.44-87.39,219.79-109.58Q1233.62,399.24,1237.19,414.18Z" transform="translate(-335.05 -69.33)"/><path class="cls-5" d="M1128.58,712.55c-59.38,32.46-112.64,49.4-119,37.84s36.69-47.25,96.07-79.72,112.63-49.41,119-37.85S1188,680.07,1128.58,712.55Z" transform="translate(-335.05 -69.33)"/></g></g><g id="Layer_8" data-name="Layer 8"><path class="cls-6" d="M1083.81,424.75a106.28,106.28,0,0,0-3,52.07c.44,2.32,1,4.61,1.56,6.85a106.56,106.56,0,0,1,1.28,31.53h0q-1.62,9.78-3.92,19.31a274.72,274.72,0,0,1-15.94,47.11A275,275,0,0,1,1012.42,604l-.33.11c-1.51.49-3,1-4.55,1.4h-.09a105.88,105.88,0,0,1-134.09-90.29,277.86,277.86,0,0,0,91.19-116.32,274.34,274.34,0,0,0,15.84-52c.2-1,.4-1.93.57-3a65.37,65.37,0,0,1,112.17-30.18l.1.12c.57.68,1.17,1.36,1.76,2l0,0a105.44,105.44,0,0,0,78.77,35.15c1.8,0,3.59,0,5.37-.14A105.79,105.79,0,0,0,1083.81,424.75Z" transform="translate(-335.05 -69.33)"/><path class="cls-6" d="M1053.68,602.2A277.16,277.16,0,0,1,714.86,729.51,449.81,449.81,0,0,0,819.14,613.83,277.53,277.53,0,0,0,1053.68,602.2Z" transform="translate(-335.05 -69.33)"/><path class="cls-7" d="M538.24,813.39a446.23,446.23,0,0,0,38.93-182.91q0-6-.15-12a277.69,277.69,0,0,0,137.84,111A446,446,0,0,1,538.24,813.39Z" transform="translate(-335.05 -69.33)"/><path class="cls-7" d="M1064.26,581.41a275.61,275.61,0,0,1-136.1,35.7q-8.1,0-16.08-.46c-107-6.12-197.74-73-238.21-166.7q-1.18-2.9-2.44-5.83a277.87,277.87,0,0,0-141-143,275.83,275.83,0,0,1,111.78-23.49q8.12,0,16.08.46c127.62,7.32,232.07,101,255.76,223.57.32,2.24.72,4.45,1.21,6.65a105.83,105.83,0,0,0,149,73.12Z" transform="translate(-335.05 -69.33)"/></g></svg>