<svg id="Stacked" xmlns="http://www.w3.org/2000/svg" xmlns:xlink="http://www.w3.org/1999/xlink" viewBox="0 0 1047.28 1299.62"><defs><style>.cls-1{font-size:68px;}.cls-1,.cls-3{fill:#015072;font-family:Poppins-SemiBold, Poppins;font-weight:600;}.cls-2{font-family:Poppins-Medium, Poppins;font-weight:500;}.cls-3{font-size:283px;}.cls-4{fill:url(#linear-gradient);}.cls-5{opacity:0.8;}.cls-6{fill:#fff;}.cls-7{fill:#45caf5;}.cls-8{fill:#01a0e4;}</style><linearGradient id="linear-gradient" x1="1378.67" y1="3961.99" x2="827.02" y2="3255.91" gradientTransform="matrix(1, 0, 0, -1, -636.55, 4056.94)" gradientUnits="userSpaceOnUse"><stop offset="0" stop-color="#bbbbd4"/><stop offset="0.11" stop-color="#b5b6ce"/><stop offset="0.36" stop-color="#9499ae"/><stop offset="0.73" stop-color="#687383"/><stop offset="0.92" stop-color="#576473"/><stop offset="1" stop-color="#556271"/></linearGradient></defs><g id="Layer_2_copy" data-name="Layer 2 copy"><text class="cls-1" transform="translate(14 1181.61) scale(0.96 1)">HUMAN RIGHTS <tspan class="cls-2" x="532.43" y="0">AND </tspan><tspan x="694.75" y="0">PEOPLE</tspan><tspan x="0" y="59">EMPOWERMENT </tspan><tspan class="cls-2" x="544.13" y="59">CENTER</tspan></text></g><text class="cls-3" transform="translate(0 1121.73) scale(1 1.06)">HRPEC</text><g id="Bilog"><circle class="cls-4" cx="466.3" cy="447.99" r="447.99"/><g class="cls-5"><path class="cls-6" d="M1666.3,307.43c-43.12,30.37-115.79,74.51-199.9,120.5C1326.69,504.31,1208.32,556.87,1202,545.3s101.81-82.86,241.52-159.24c78.85-43.11,150.9-78.63,199.85-99.32Q1655.18,296.67,1666.3,307.43Z" transform="translate(-889.72 -181.33)"/><path class="cls-6" d="M1702,346.06c-46.9,32.14-123.36,78.13-211.35,126.23-150,82-276.77,139.13-283.09,127.58s110.19-87.41,260.21-169.44c84.6-46.25,161.81-84.59,214.18-107.16Q1692.36,334.33,1702,346.06Z" transform="translate(-889.72 -181.33)"/><path class="cls-6" d="M1732.09,387.16c-49.78,33.36-128,80-217.47,129-157.69,86.18-290.65,146.71-297,135.15s116.39-90.83,274.08-177c87.89-48,168-88.11,222.9-112.18Q1723.78,374.34,1732.09,387.16Z" transform="translate(-889.72 -181.33)"/><path class="cls-6" d="M1393.92,295.38c-59.37,32.46-112.63,49.37-119,37.82S1311.65,286,1371,253.48s112.64-49.41,119-37.85S1453.3,262.92,1393.92,295.38Z" transform="translate(-889.72 -181.33)"/><path class="cls-6" d="M1574.58,239c-25.61,23.05-84.85,61.66-156.4,100.79-100,54.68-186.24,89.64-192.54,78.08s69.63-65.27,169.65-119.95c61.62-33.7,118-59.89,153.67-72.35Q1562,231.83,1574.58,239Z" transform="translate(-889.72 -181.33)"/><path class="cls-6" d="M1624.46,271.66c-37.08,27.64-104,69.09-182.32,111.91-124,67.8-229.65,113.39-236,101.82s89.08-75.9,213.09-143.69c70.92-38.78,135.83-70.28,179.61-88Q1612,262.23,1624.46,271.66Z" transform="translate(-889.72 -181.33)"/><path class="cls-6" d="M1801.14,578.82c-43.88,30-112.06,71-190.09,113.7C1471.36,768.9,1353,821.45,1346.63,809.88S1448.46,727,1588.17,650.64c83.52-45.66,159.42-82.79,208.3-102.82Q1799.37,563.15,1801.14,578.82Z" transform="translate(-889.72 -181.33)"/><path class="cls-6" d="M1804,629.34v5.45c-38.58,27.12-99.16,64.06-168.67,102.09-123.78,67.68-229.25,113.17-235.57,101.61s88.91-75.8,212.68-143.45c77.31-42.26,147.47-75.88,190.8-92.34Q1804,615.92,1804,629.34Z" transform="translate(-889.72 -181.33)"/><path class="cls-6" d="M1802.79,662.39q-1.15,15.57-3.39,30.87c-30.29,23.11-81,55.13-140.12,87.45-100,54.69-186.23,89.65-192.54,78.09s69.64-65.27,169.65-119.95C1705.94,700.82,1768.8,672.33,1802.79,662.39Z" transform="translate(-889.72 -181.33)"/><path class="cls-6" d="M1756.89,430.43c-49.73,33.38-128.32,80.32-218.31,129.52-157.69,86.23-290.65,146.78-297,135.23s116.39-90.82,274.08-177c90-49.23,172-90.07,226.92-113.9Q1750.17,417.05,1756.89,430.43Z" transform="translate(-889.72 -181.33)"/><path class="cls-6" d="M1777.09,477.19c-49.17,33-126.18,78.94-214.25,127.13-155.8,85.19-287.23,144.87-293.55,133.3s114.86-90,270.66-175.21c89.82-49.1,171.53-89.74,225.86-113.14Q1771.93,463,1777.09,477.19Z" transform="translate(-889.72 -181.33)"/><path class="cls-6" d="M1791.86,526.18c-47.3,31.89-120.9,76-205.06,122-150,82-276.75,139.15-283.09,127.59s110.17-87.43,260.2-169.44c87.69-48,167.43-87.39,219.79-109.58Q1788.29,511.24,1791.86,526.18Z" transform="translate(-889.72 -181.33)"/><path class="cls-6" d="M1683.25,824.55c-59.38,32.46-112.64,49.4-119,37.84s36.69-47.25,96.06-79.72,112.64-49.41,119-37.85S1742.62,792.07,1683.25,824.55Z" transform="translate(-889.72 -181.33)"/></g></g><g id="Layer_8" data-name="Layer 8"><path class="cls-7" d="M1638.47,536.75a106.27,106.27,0,0,0-3,52.07c.43,2.32,1,4.61,1.56,6.85a106.56,106.56,0,0,1,1.28,31.53h0q-1.62,9.78-3.92,19.31a275.58,275.58,0,0,1-15.94,47.11A275.24,275.24,0,0,1,1567.09,716l-.33.11c-1.51.49-3,1-4.55,1.4h-.09A105.88,105.88,0,0,1,1428,627.26a277.76,277.76,0,0,0,91.18-116.32,274.37,274.37,0,0,0,15.85-52c.2-1,.39-1.93.57-3a65.36,65.36,0,0,1,112.16-30.18l.11.12c.57.68,1.16,1.36,1.76,2l0,0a105.44,105.44,0,0,0,78.77,35.15c1.8,0,3.59,0,5.37-.14A105.82,105.82,0,0,0,1638.47,536.75Z" transform="translate(-889.72 -181.33)"/><path class="cls-7" d="M1608.35,714.2a277.16,277.16,0,0,1-338.82,127.31,449.81,449.81,0,0,0,104.28-115.68A277.53,277.53,0,0,0,1608.35,714.2Z" transform="translate(-889.72 -181.33)"/><path class="cls-8" d="M1092.91,925.39a446.4,446.4,0,0,0,38.93-182.91q0-6-.15-12a277.69,277.69,0,0,0,137.84,111A446,446,0,0,1,1092.91,925.39Z" transform="translate(-889.72 -181.33)"/><path class="cls-8" d="M1618.93,693.41a275.65,275.65,0,0,1-136.11,35.7q-8.1,0-16.07-.46c-107-6.12-197.74-73-238.22-166.7q-1.18-2.9-2.43-5.83a277.87,277.87,0,0,0-141-143,275.8,275.8,0,0,1,111.78-23.49q8.1,0,16.08.46c127.61,7.32,232.07,101,255.76,223.57.32,2.24.72,4.45,1.2,6.65a105.84,105.84,0,0,0,149,73.12Z" transform="translate(-889.72 -181.33)"/></g></svg>