<svg width="1920" height="3782" viewBox="0 0 1920 3782" fill="none" xmlns="http://www.w3.org/2000/svg">
<g opacity="0.4">
<path d="M2059.37 682.459C2195.27 629.738 2332.09 680.177 2364.99 795.118L2387.35 873.289C2420.25 988.23 2336.75 1124.15 2200.85 1176.87L-350.32 2166.61L-491.801 1672.2L2059.37 682.459Z" fill="#45CAF5"/>
<path d="M-170.758 105.296L2256.9 692.557C2382.33 722.899 2439.42 842.133 2384.42 958.873L2332.92 1068.16C2283.49 1173.08 2152.03 1236.03 2039.3 1208.76L-411.358 615.932L-170.758 105.296Z" fill="#01A0E4"/>
</g>
<g opacity="0.4">
<path d="M-753.689 2824.12C-889.453 2801.01 -989.983 2678.75 -978.229 2551.04L-955.458 2303.63C-943.704 2175.92 -824.117 2091.13 -688.352 2114.23L2795.13 2707.13L2729.8 3417.01L-753.689 2824.12Z" fill="#45CAF5"/>
<path d="M1634.93 5123.89L-963.102 2620.37C-1056.03 2530.82 -1053.45 2388.42 -957.338 2302.3L-774.056 2138.07C-687.68 2060.67 -549.955 2063.17 -466.44 2143.64L2148.63 4663.58L1634.93 5123.89Z" fill="#01A0E4"/>
</g>
</svg>
